<?xml version="1.0" encoding="utf-8"?>
<!-- Generator: Adobe Illustrator 27.0.1, SVG Export Plug-In . SVG Version: 6.00 Build 0)  -->
<svg version="1.1" id="LOGO_UNITO_VERTICALE" xmlns="http://www.w3.org/2000/svg" xmlns:xlink="http://www.w3.org/1999/xlink"
	 width="605px" height="231px" viewBox="0 0 1334.6 543.2" style="enable-background:new 0 0 1334.6 543.2;" xml:space="preserve">
<style type="text/css">
	.st0{fill:#EA0029;}
	.st1{fill:#54565A;}
</style>
<g id="UNIVERSITA_x27__DI_TORINO">
</g>
<g>
	<g>
		<path class="st0" d="M271.6,135.4c-0.6-0.1-2.1,0.3-1.2,0.9c0.7,0.5,1.4,2.7,2.7,2.9c0.7,0.1,0.2-0.8,0.7-0.9c0.5,0,1.2,1.5,1.7,1
			C276.1,138.6,273.8,135.8,271.6,135.4z"/>
		<path class="st0" d="M223.7,229.1c0.6-1.3-0.3-1.6-0.5-2.4s0.3-1.3-0.7-1.7c-0.8-0.3-1.9,1.5-1.8,3.5
			C220.8,230.1,223,230.7,223.7,229.1z"/>
		<path class="st0" d="M206.4,246.5c0.5-1.3,0.2-3.2,0.3-4c0.3-2,1.7-4.1,0.6-4.7c-1.2-0.5-1.4,2-2.6,3.1c-1,1-5.5,4.4-2.9,7.5
			C202.8,249.5,205.6,248.3,206.4,246.5z"/>
		<path class="st0" d="M324.6,329.8c-3.3-4.5-13.8-22.8-10.3-34.2c2.9-9.6,18.4-11.2,28.9-8.8c-14.7-9-33.5-4.1-35.7,9.6
			c-1.9,11.4,5.1,26.5,8.6,31.8C318.7,329,322.4,329.3,324.6,329.8z"/>
		<path class="st0" d="M221.7,335c7-0.4,10.3-5.2,16.6-7.1c-7.3,0.9-18.9,0.9-21.3,1.3c-2,0.4-12,4.3-15.6,5.7
			C204.7,334.7,219,335.1,221.7,335z"/>
		<path class="st0" d="M222.5,322.5c-0.7-3.5-1.1-4.8-1.7-7.1c-14.6-6.8-10-28.9,3.4-31.7C198.2,283.9,201.7,320.8,222.5,322.5z"/>
		<path class="st0" d="M357.7,274.7c-0.4-0.1-2.2,0.8-0.9,2.5c14.4,18.3,16.5,48,11.8,60.3C392.8,319.9,385.6,281.7,357.7,274.7z"/>
		<path class="st0" d="M313.3,349c4.2-0.3,10.9-2.9,13.3-5.7c-4.5,0.1-16.7-0.6-18-0.1c-4.2,1.1-7,2.9-11.6,5.6
			C298.8,348.5,307.4,349.3,313.3,349z"/>
		<g>
			<path class="st0" d="M249.2,490.6l-11.6,13.3c-0.3,0.3-0.6,0.6-1,0.9c-0.4,0.3-0.8,0.4-1.1,0.5l13.1,1.4l2-18.3
				c-0.1,0.4-0.3,0.7-0.5,1.1C249.7,490,249.4,490.3,249.2,490.6z"/>
			<path class="st0" d="M325.5,483.9c-0.1,0.5-0.2,0.8-0.3,1.2l-6.3,16.5c-0.2,0.4-0.4,0.8-0.7,1.2s-0.6,0.7-0.9,0.9l12.7-3.2
				l-4.5-17.9C325.6,483,325.6,483.4,325.5,483.9z"/>
			<path class="st0" d="M37.1,249.4c-0.9-0.7-2-1-3.2-1.1s-2.3,0.1-3.3,0.7c-1,0.5-1.8,1.3-2.4,2.3s-0.9,2.1-1,3.4l-0.5,8.3
				l12.5,0.8l0.5-8.4c0.1-1.2-0.1-2.4-0.6-3.4C38.8,250.9,38.1,250,37.1,249.4z"/>
			<path class="st0" d="M293.9,492.8c-0.9-2.2-2.1-3.9-3.6-5.1c-1.5-1.1-3.2-1.6-5.2-1.5s-3.6,0.8-5,2.1c-1.3,1.3-2.3,3.1-2.9,5.5
				c-0.6,2.3-0.8,5.1-0.6,8.2c0.2,3.1,0.7,5.8,1.6,8.1c0.9,2.2,2.1,3.9,3.6,5.1c1.5,1.1,3.2,1.6,5.2,1.5s3.6-0.8,5-2.1
				c1.3-1.3,2.3-3.1,2.9-5.5c0.6-2.3,0.8-5.1,0.6-8.2C295.4,497.7,294.8,495,293.9,492.8z"/>
			<path class="st0" d="M271.4,87.2c-101.6,0-184.3,82.7-184.3,184.4S169.8,456,271.4,456s184.3-82.7,184.3-184.4
				S373,87.2,271.4,87.2z M304.1,167.6c13.5-1.1,16.1-14.7,8.5-20.8c-5.5-4.4-6.4-11-1.4-13.1c12.8-5.3,17.2-16.8,17.6-28.1
				c2.8,1.3,5.2,2.2,4.6,6.2c-0.5,3.3-3.5,14-9.7,19.7c0.7,0.9,1.3,0.8,2.2,2c9.9-6.4,13.3-13.9,15.2-19.9c1.8,1.7,4.2,3.9,2.9,6.7
				c-1.3,2.8-6.9,12.6-14.7,17c0.7,1,1.1,1.5,1.7,2.5c7.5-2.6,17.5-11.8,19.2-16.1c0.9,1.6,3.4,4.1,1.2,7
				c-3.4,4.5-10.3,10.3-18.2,13.6c0.2,0.7,0.8,2.4,1,3.2c11.2-2.9,18.5-7.7,22.6-11.3c1.3,3.1,1.6,4.9-0.5,6.7
				c-2.1,1.7-13.5,8.5-21.2,9.6c0.2,1.1,0.1,2.3,0.2,3.2c9.7,0.2,20.6-4.6,24.5-7.1c0.5,1.1,0.9,5.5-1.2,6.5s-12.6,6-23.8,5.7
				c-0.1,0.3-0.6,2.8-0.7,3.3c8.8,2.2,22.2-0.6,25.9-2c-0.2,2.8-0.1,5.2-3.7,6.2c-3.9,1.1-15.8,2.7-24,0.5c-0.3,0.7-1.1,2-1.6,2.8
				c4.1,1.9,14.3,5.3,25.7,3.4c-0.8,2-1.7,5.2-4.9,5.5c-7.4,0.6-18.8-1.8-23.8-4.8c-0.7,0.7-1.5,1.7-2.1,2.2
				c3.2,2.6,12.1,8.7,24.6,9.3c-0.9,1.8-3.1,5.1-6.7,4.4c-7.6-1.6-15.8-5.1-22-10.5c-1.5,0.8-2,1.2-2.8,1.6
				c1.2,1.6,9.2,11.3,22,15.4c-3.3,2.3-5.9,3.1-9.2,1.5c-5.1-2.5-12.5-8-17.7-14.9c-1.7,0.5-2.2,0.6-3,0.8
				c1.4,3.1,6.6,11.9,14.2,17.9c-5,1.2-7.2,0.2-9-1.6c-4.6-4.8-9.7-13-10.5-15.8c-1.6,0-2.4,0-3.7-0.1c1.2,7.3,5.2,14.9,8.4,19.2
				c-3,0.6-5.7,0.6-6.2-0.1c-3-4.1-6.5-12.3-7.4-19.3c-1.8,0.1-3,0.5-3.4,0.6c-0.2,9.3,2.7,19.1,5.2,23.7c-1.7,1.3-2.5,2.5-3.6,4
				c-2.7-4.2-6.5-14.9-6.6-25.4c-11.7,11.1,5.2,43.7,17,54.2c-2.9,1-4.5,1.9-6.4,2.4c-2-1-8.9-11.6-9.5-12.4
				c-1.7,0.4-2.1,0.4-3.3,0.8c0.7,1.6,5.6,12,7.1,13.2c-1,0.5-4.8,1.3-6.4,1.5c-11.7-35.3-38.1-61.3-17.4-86
				c0.2-0.2,0.4-0.4,0.6-0.7c-0.1,0-0.2-0.1-0.3-0.1c-2.3-0.6-7.5-2.1-8.9-2.5c1.4-0.6,7.3-12.3,6.6-16.6c-0.2-1.3-4.5-8.2-8.2-5.8
				c-0.2,0.1,1-5.8,4.5-6.1c2.1-0.2,4,1.7,5.3,1.9c1.2,0.1,0.8-0.5,0.9-1.2c0.3-0.2,0.5,0,0.7,0c17.6,4.9,14.9,19.7,16.5,24.8
				c-5.6-0.1-8,2.2-9.1,4c0.1,0.6,0.1,1.1,0.1,1.1C290.3,158.3,293,168.5,304.1,167.6z M309.4,265.1c-1.2,0-4.5,0-5.4,0
				c0-0.5-3.1-7.7-3.4-8.2c1.5-0.2,5.8,0.4,6.4,1.5C307.7,259.6,309.2,264,309.4,265.1z M299.5,265.2c-0.7,0-4.1,0.1-5.2,0
				c-0.2-0.7-2.5-6.9-4.1-9.7c0.8-0.1,5.6-0.5,6.4,1.6C297.3,258.8,299.3,263.6,299.5,265.2z M280.2,249.6c2.4-0.3,5.4-0.8,6.2-0.9
				c0.7,1.4,1.8,7.4,1.9,8.2c-1.9,1.6-5.3,8.2-5.6,8.2C283.2,260.9,280.9,251.1,280.2,249.6z M268.3,235.3c-0.3,1.3-1,13.6-1.5,14.5
				c-1.1-0.1-4.1-0.3-5.6-0.5c1.6-6.9,7.6-26.1,7.6-26.1s8.9,17.1,11.4,26.3c-1.2,0.1-5.3,0.4-5.9,0.4c-0.1-0.7-2.4-13.8-2.2-14.6
				C270.6,235.4,269,235.3,268.3,235.3z M246.1,253.8c0.8-0.7,5.3-0.2,6,0.3c-1.5,2-5.2,7.7-5.4,9.2c-1.6-1-3.6-2.6-4.3-3.2
				C242.8,259.3,245.3,254.6,246.1,253.8z M238.9,257.8c-0.8-0.5-3.8-2.2-4.2-2.6c0.5-0.6,1.1-1.7,1.9-2.6c0.5-0.5,4.3-0.4,6.3,0.4
				C241.7,254,239.7,256.8,238.9,257.8z M249.8,247.1c0.7-0.4,5.2-12,5.9-13.5c-1.4-0.3-2.2-0.7-3-0.9c-0.6,0.9-7,11-9,12.5
				c-1.7-0.6-3.9-1.3-6-2.3c1.4-0.4,20.6-25.3,19.7-45.2c0.9,2.7,7.5,18.1,7.5,18.1s-9.5,29.6-9.9,32.4
				C253.1,247.9,251,247.4,249.8,247.1z M254.7,248.3c0.1,0,0.2,0,0.3,0.1c0,0,0,0,0-0.1c0.6,0.1,4,0.5,6.1,0.9
				c-0.7,2.6-2.6,10.1-3.2,16c0-0.1-0.1-0.4-0.3-0.8c0,0.2-0.1,0.5-0.1,0.8c-0.2-0.9-3.9-9.2-4.6-9.9
				C253.1,254.6,254.4,248.9,254.7,248.3z M263.1,117.9c-1.8,1.1-3.8,1.9-5.8,2.5c-0.7-4.2-4-7-4.8-9.7c0.4-0.1,0.8-0.2,1.2-0.3
				C256,113.8,261.2,114.2,263.1,117.9z M258.7,108.2c0.2-0.2,0.8-0.6,1.1-0.8c3.7,2.2,8.8,1.3,11.5,2.9c-1.2,1.7-2.6,3.2-4.1,4.6
				C264.5,110.9,261.1,110.2,258.7,108.2z M280.4,116.5l-2.5,0.9c0,0,1.3,3.8,1.7,6.3c-3.5,2.3,2.3,5.2,2,0.8
				c0.6-0.3,4.7-1.7,4.7-1.7l0.1-2l2-0.5v2l-2.1,0.5c0,0,0.1,3.7,0.1,5.3c-3.9,1.6,1,5.5,1.7,1.3c0.6,0,6.1-0.3,6.1-0.3l-0.2-2.8
				c0,0,2.6-0.1,2.7-0.1c0.1,0-7.7,9.1-9.6,11.2c-4.3-7.3-13.1-10.1-13.5-10.3c0.5-1,5.8-13.2,5.8-13.2L280.4,116.5z M265.5,95.5
				c1.8-0.1,3.5-0.1,5.3-0.1s3.5,0,5.2,0.1c0,0.1,0,0.1,0,0.2c-4,0.2-8.8,1.8-10.7,1.8C265.4,96.8,265.5,96.1,265.5,95.5z
				 M263.7,102.7c3.7,0,7.6-1.9,11.8-1.9c-0.4,1.9-1,3.7-1.8,5.4c-4.5-2.6-8.4-1.6-10.7-2.4C263.3,103.4,263.5,103,263.7,102.7z
				 M260.5,95.7c-0.2,5.7-4.8,10.2-10.5,10.2c-4.9,0-8.9-3.3-10.1-7.8C246.6,96.9,253.5,96.1,260.5,95.7z M245.8,110.2
				c0.6,0.2,1,0.3,1.6,0.5c1.1,5.2,4.7,7.4,5,10.6c-0.8,0.1-1.6,0.1-2.4,0.1c-1.5,0-2.9-0.1-4.3-0.4
				C247.1,117,245.9,113.5,245.8,110.2z M240.7,107.7c-0.8,4.4,1.5,8.8,0.3,12c-2.1-0.8-4-1.8-5.8-3c3-2.9,3.1-7.3,4.6-9.8
				C240.1,107.3,240.4,107.5,240.7,107.7z M236.5,103c-3.5,4.5-2.6,8.4-5.1,10.4c0,0-0.1,0-0.1,0.1c-1.5-1.5-2.8-3.3-3.9-5.1
				c4-1.5,5.7-4.9,8.6-6.3C236.2,102.3,236.3,102.7,236.5,103z M230.2,100.1c-1,1-2.9,3.1-4.8,3.6c-0.3-0.7-0.5-1.5-0.7-2.3
				C226.5,101,228.3,100.6,230.2,100.1z M181.9,148.7c3.9,2.5,14.8,7.3,24.5,7.1c0-0.9,0-2.1,0.2-3.2c-7.7-1.1-19.2-7.9-21.2-9.6
				c-2.1-1.7-1.8-3.5-0.5-6.7c4.1,3.5,11.4,8.3,22.6,11.3c0.2-0.8,0.8-2.5,1-3.2c-7.9-3.3-14.9-9.1-18.2-13.6
				c-2.2-2.9,0.3-5.5,1.2-7c1.7,4.3,11.7,13.5,19.2,16.1c0.6-1,1-1.5,1.7-2.5c-7.8-4.4-13.4-14.2-14.7-17c-1.3-2.8,1.1-5.1,2.9-6.7
				c1.8,6,5.3,13.5,15.2,19.9c1-1.2,1.6-1.1,2.2-2c-6.3-5.7-9.2-16.4-9.7-19.7c-0.6-3.9,1.8-4.9,4.6-6.2
				c0.4,11.3,4.8,22.7,17.6,28.1c5,2.1,4.2,8.7-1.4,13.1c-7.7,6.1-5,19.7,8.5,20.8c7,0.6,11.9-5.7,22.7-8.3c-1.3,1.3-2,2.8-4.2,5
				c0.8,0.3,2.2,0.9,3.5,0.9c-6.5,11.2-4.1,23.2-3.5,26.1c-0.9-2-1.8-2.5-2.5-2.6c-0.1,10.5-3.9,21.2-6.6,25.4
				c-1.1-1.5-1.9-2.7-3.6-4c2.5-4.6,5.4-14.4,5.2-23.7c-0.4-0.1-1.6-0.5-3.4-0.6c-0.9,7-4.4,15.2-7.4,19.3c-0.5,0.7-3.2,0.7-6.2,0.1
				c3.1-4.4,7.2-12,8.4-19.2c-1.3,0.1-2.1,0.1-3.7,0.1c-0.8,2.7-5.9,10.9-10.5,15.8c-1.8,1.9-4.1,2.8-9,1.6
				c7.6-6,12.8-14.8,14.2-17.9c-0.8-0.2-1.4-0.3-3-0.8c-5.2,6.9-12.6,12.4-17.7,14.9c-3.3,1.6-5.9,0.8-9.2-1.5
				c12.8-4.1,20.8-13.8,22-15.4c-0.9-0.4-1.4-0.8-2.8-1.6c-6.2,5.4-14.4,8.8-22,10.5c-3.6,0.8-5.9-2.5-6.7-4.4
				c12.5-0.6,21.4-6.8,24.6-9.3c-0.6-0.5-1.5-1.4-2.1-2.2c-5,3-16.4,5.3-23.8,4.8c-3.3-0.2-4.1-3.5-4.9-5.5
				c11.4,1.8,21.6-1.5,25.7-3.4c-0.5-0.9-1.2-2.1-1.6-2.8c-8.3,2.2-20.2,0.6-24-0.5c-3.7-1-3.6-3.4-3.7-6.2c3.7,1.4,17.2,4.1,25.9,2
				c-0.1-0.5-0.7-3-0.7-3.3c-11.2,0.2-21.7-4.7-23.8-5.7C180.9,154.2,181.3,149.9,181.9,148.7z M174.1,202.9
				c5.8-0.6,23.7,0.3,22.1,16.5c-7.1,2.9-9.5,4.1-9.5,4.1c4.3-14.1-6.5-18.3-13.3-19C170.9,204.3,171.3,203.2,174.1,202.9z
				 M183.2,232.3c4.8-3.4,21.4-9.8,27.7-11.5c3.3-0.9,7.9-3.4,11.2-4.3c2.1-0.6,4.2,0.1,5.3,1.3c0.3,0.4,0,1.6,0.5,2
				s6.8,4.8,6.5,6.5c-0.7,3.9-1.7,4.2-2.5,5.7c-1.9,3.7-3.5,7.9-7.1,14.3c-9,26.5-24.7,11.8-28.5,7c-2.3,3.7-7.2,19.6-10.2,25
				c10.2-3.2,11.5-10.6,11.6-14.9c1.3,1.3,8.5,5.6,15.6,4.3c-4.4,6-26.9,22.9-13.8,48.4c0.3-7.5-0.5-13.6,3.2-24.8
				c4-12.1,20.4-19.7,23.9-33.3c0,0,0.9,0.3,2.8,0.9c6.3,2.2,15.2,11.5,17.9,11.8c3.5,0.4,78.4,0.2,84.1,0.3
				c6.8,0.1,18.6-6.7,31.5-1.4c37.9,15.5,32.5,67,1.5,76.9c1.9-3.4,3.5-6.6,4.4-9c-6.2,4-7.8,3.3-12.9,5.3c-1.3,0.5-3,2.6-2.4,6.1
				c0.7,4.2,1.9,8.6-0.5,11.8c-1.9,2.4-37.8-0.9-41.1,1.1c-4.4,2.7-5.7,5-12.6,5c0.5-1.2,0.8-4.2-2.3-3.9c-5.6,0.5-2.1,8.6-6.7,10.3
				c-1.1,0.4-1.9,0-2.5,0.2c-2.3,0.9-2.5,3.7-2.7,5.5c-1.4,0.1-20.6,0.2-22.7,0c2.2-6.5,6.6-10.3,7.8-10.8c-0.9-0.3-1.5,0-1.7-1.6
				c6.3-0.8,6.3-4.3,10-6.8c2.2-1.5,5.1-3,8.3-5c2.9-1.8,7.9-4.6,10.6-6.2c-31.2-3.9-28.7-26.3-22.8-39.3
				c11.5-1.8,12.2-14.9,11.4-17.9c-0.8-3.1-1.2-8.2-1.2-14.3c-4.9,13.6-9.5,13.3-16.7,30.5c-8.3,19.8-0.9,34.9,9,40.9l-17,0.1
				c0.8-14.2-3.1-17.3-5-20.4c-2.2-3.4,0.2-24.8-3.2-29.7c-1.3-1.9-8-5.1-10.5-5.1c10.1,8.6,4.1,27.5,7.9,36.8
				c1.6,4,5.5,5.1,4.8,18.1c-4.2,0.4-47.6,0.4-49.9,0.5c3.8-3.2-2.3-8.9-6.7,0c-0.9,1.8-1.4,2.4-3.9,4.2c-2.3-0.2-19.4,0.2-21.4,0
				c0.4-2.6,6.3-8.1,9.1-9.8c-0.6-0.6-2.3,0.2-1.9-1.8c0.9,0,2.5-0.3,4.9-1.6c2.5-1.3,2.3-4.4,9.6-5.4c-8.3-3.3-13.8-16.1-15.2-24.4
				c-3.7-5.7-12.8-20.4-12.1-33.8c17.2,0.2,21.7-18.7,23.7-23.9c2-4.9-5.5-11-8.8-2.2c-2.4,6.4-6.5,17.3-14,18.3
				C167.9,264.8,181.4,239.4,183.2,232.3z M397.1,371.2c-2.9-0.7-5.2-0.8-7.6-0.5c-1.8-2.7-12.2-19.9-13.9-22.6
				c1.6-0.9,4.9-3.6,4.9-3.6C382.4,347.2,395.5,368.7,397.1,371.2z M259.8,348.9c0,0-2.2,27.1-2.2,29c-1.8-1.7-3.8-2.6-5.9-3.1
				c0.2-2.3,2-25.9,2-25.9H259.8z M208.7,372.4c-4.2,1.7-10.8,1.1-12.2-0.1c1.6-1.5,5-4.6,4.7-5.8c-2.3-0.3-7.7,1.7-9,2.2
				c-1.3-2.8,0.1-6.3,3-8.5c2.5,1.2,5.9,2.5,7.5,2.2c0.8-2.1-0.2-4.9-0.4-5.9c1.2-0.6,9-1.4,11.4,0.2c-1.1,1-4.5,3.9-4.6,5.8
				c1.9,0,6.4-1.1,8.8-2.2c1.6,2.6,0.1,6.3-2.8,8.6c-2-1.2-5.8-2.2-7.8-2.1C207.1,368.8,207.9,370.6,208.7,372.4z M147,264.3
				c0.3-0.3,0.8-0.5,1.2-0.4c3.5,1.5,12,4.6,19.1,4.8c-0.8,2.5-1.2,6.1-1.1,7.8C157.4,275.2,144.7,266.3,147,264.3z M124.4,341.7
				c1.7-6.4,9.2-9.9,8.3-10.2c-0.8,0-1.8,0.2-1.9-1.1c2.3-0.1,5.1-3.3,7.2-4.7c2.5-1.6,8.3-2.5,11.8-3.5s15.6-8.4,22.9-9.2
				c-0.2,3.4,5.3,16,8.3,19c-5.3,2.1-22.5,2.1-24.1,2.3c2.3-2.7-2.7-7-6.2,0.1c-1,2-1.1,4.2-4.1,7.3
				C143.7,341.8,129.1,341.6,124.4,341.7z M322.8,428.6c-7.9,0-101.2,0-101.2,0v-18h-6.3l2.6-11.8c-29.9,0-70.6,0-70.6,0v-18h-7.2
				l24.6-40.3c2.9-0.2,3.7-0.2,7.5-0.4c-2.9,4.7-25.1,40.9-24.8,40.7c0,0,91.5,0,100.5,0c11.8,0,11.4,18,0.7,18
				c-2.3,0-11.9,0-24.3,0l-2.6,11.8c0,0,91.5,0,100.5,0C333.9,410.5,333.5,428.6,322.8,428.6z M395.8,394.5c-4.9,0-42.6,0-70.6,0
				c0.3,1.3,2.2,9.1,2.6,11.1c-2.2-0.9-5.1-1.2-6.6-1.3c-0.5-2.2-2.1-8.8-2.3-9.8c-14.1,0-24.4,0-24.4,0v-18c0,0,91.5,0,100.5,0
				C406.9,376.4,406.5,394.5,395.8,394.5z"/>
			<path class="st0" d="M314.6,58.6c2.4-0.9,4.5-2.4,6.1-4.4c1.7-2,2.7-4.4,3.2-7.1s0.3-5.3-0.6-7.8c-0.9-2.5-2.3-4.5-4.3-6.2
				s-4.3-2.7-6.9-3.2l-9.6-1.6l-5.1,29.5l9.6,1.6C309.6,59.8,312.2,59.6,314.6,58.6z"/>
			<path class="st0" d="M497.4,214.5c0.8,0.8,1.7,1.4,2.8,1.7c1.1,0.3,2.2,0.3,3.3,0c1.2-0.3,2.1-0.9,2.9-1.7
				c0.8-0.8,1.3-1.8,1.5-2.9s0.2-2.3-0.1-3.5l-2.2-8.1l-12.1,3.3l2.2,8.1C496.1,212.6,496.6,213.6,497.4,214.5z"/>
			<path class="st0" d="M463.5,130c0.5-1,1-1.7,1.4-2.2s0.9-0.9,1.4-1.3l-0.2-0.2c-0.6,0.4-1.1,0.7-1.7,1c-0.6,0.2-1.4,0.5-2.5,0.8
				l-15.1,3.5l8.9,11.9L463.5,130z"/>
			<path class="st0" d="M78.1,132c-1.1-0.2-1.9-0.5-2.5-0.7s-1.1-0.5-1.7-0.9l-0.2,0.2c0.5,0.4,1,0.9,1.4,1.3
				c0.4,0.5,0.9,1.2,1.5,2.1l8,13.3l8.7-12.1L78.1,132z"/>
			<path class="st0" d="M271.4,0C121.5,0,0,121.6,0,271.6s121.5,271.6,271.4,271.6s271.4-121.6,271.4-271.6S421.4,0,271.4,0z
				 M520.9,241.3l-41.8,5.6l-0.9-6.6l41.8-5.6L520.9,241.3z M514.2,206.7c0.6,2.3,0.7,4.6,0.1,6.8c-0.5,2.2-1.6,4.1-3.2,5.8
				c-1.6,1.6-3.5,2.8-5.8,3.4c-2,0.6-4,0.6-6,0c-1.9-0.5-3.6-1.4-5-2.6s-2.3-2.6-2.7-4l-0.3-0.8l0,0c0.1,0.9,0.1,1.6,0,2.2
				s-0.4,1.2-0.9,1.7L478,235l-1.4-5c-0.2-0.9-0.3-1.7-0.2-2.4c0.1-0.8,0.5-1.5,1.1-2.3l11.1-14.2l-1.6-5.9l-16,4.4l-1.8-6.4
				l40.7-11.1L514.2,206.7z M492.5,151.5l-23.1,11.3c-1.8,0.9-3.3,2.1-4.3,3.6s-1.6,3.1-1.7,4.9c-0.1,1.8,0.3,3.6,1.2,5.5
				s2.1,3.3,3.6,4.4c1.5,1,3.1,1.6,4.9,1.7c1.8,0.1,3.6-0.3,5.4-1.2l23.1-11.3l2.9,6l-23.1,11.3c-3,1.5-6,2.1-8.9,2s-5.6-1.1-8-2.8
				c-2.4-1.7-4.4-4.1-5.9-7.1s-2.2-6-2-9c0.1-3,1.1-5.6,2.7-8c1.7-2.4,4-4.4,7-5.8l23.1-11.3L492.5,151.5z M471.2,119l3.5,4.7
				l-22.8,40l-2.7-3.6c-0.5-0.7-0.8-1.4-0.9-2.3c-0.1-0.8,0.1-1.6,0.6-2.3l3.6-6.3L440.4,133l-7.1,1.7c-0.8,0.2-1.6,0.2-2.4-0.1
				c-0.8-0.3-1.4-0.8-1.9-1.5l-2.7-3.6L471.2,119z M432.5,86.6l4.6-4.6l22.9,22.8l-4.6,4.6l-9.1-9l-25.2,25.3l-4.7-4.7l25.2-25.3
				L432.5,86.6z M373.2,41.8l-16.6,38.8l-6.1-2.6l16.6-38.8L373.2,41.8z M347,31.9l6.3,2.1l-13.2,40.1l-6.3-2.1L347,31.9z M297,21.1
				l16.2,2.8c3.8,0.7,7.2,2.2,10.1,4.6c2.9,2.4,5,5.3,6.3,8.8s1.6,7.2,1,11c-0.7,3.8-2.2,7.2-4.6,10c-2.4,2.9-5.4,4.9-8.9,6.2
				c-3.5,1.3-7.2,1.6-11,1l-16.2-2.8L297,21.1z M252.4,20.9l0.9,25.7c0.1,2,0.6,3.8,1.5,5.4c0.9,1.5,2.2,2.7,3.8,3.5
				s3.4,1.2,5.5,1.1s3.9-0.6,5.5-1.5s2.7-2.2,3.5-3.8c0.8-1.6,1.2-3.4,1.1-5.5l-0.9-25.7l6.7-0.2l0.9,25.7c0.1,3.3-0.5,6.3-1.8,8.9
				s-3.3,4.7-5.8,6.2s-5.5,2.3-8.9,2.4s-6.4-0.5-9-1.8s-4.7-3.3-6.2-5.8s-2.3-5.5-2.4-8.8L245.9,21L252.4,20.9z M234.3,22.6l1.4,6.4
				l-12.5,2.7l7.5,34.9l-6.5,1.4l-7.5-34.9l-12.5,2.7l-1.4-6.4L234.3,22.6z M172.8,45.7c0.4-2,1.3-3.8,2.8-5.4s3.4-2.8,5.7-3.7
				c1.9-0.7,3.9-1.1,6.1-1.1s4.2,0.4,5.9,1.3l-0.4,2.4c-0.1,0.7-0.4,1.3-0.7,1.9c-0.4,0.5-0.9,0.9-1.4,1.1s-1,0.3-1.5,0.2
				c-1-0.2-2-0.3-3.1-0.2c-1,0.1-1.9,0.3-2.6,0.6c-1.7,0.7-2.9,1.6-3.7,2.8c-0.7,1.2-0.9,2.6-0.3,3.9c0.4,1.1,1.3,1.9,2.7,2.3
				s3.4,0.6,6,0.5c4.4-0.3,8,0.3,10.7,1.6c2.7,1.3,4.6,3.4,5.7,6.3c0.9,2.3,1.1,4.6,0.7,6.9s-1.5,4.3-3.2,6.1
				c-1.7,1.8-3.8,3.2-6.5,4.2c-2.4,0.9-5,1.3-7.6,1c-2.6-0.2-5.1-0.9-7.4-2.1l0.5-2.8c0.1-0.5,0.3-0.9,0.7-1.3
				c0.3-0.4,0.8-0.7,1.3-0.9c0.7-0.3,1.4-0.3,2.2-0.1c1.4,0.3,2.9,0.5,4.5,0.6c1.6,0,2.8-0.1,3.8-0.5c2.2-0.8,3.7-2,4.6-3.5
				s1-3.2,0.3-5.1c-0.5-1.3-1.5-2.2-3-2.8c-1.5-0.6-3.7-0.9-6.6-0.9c-4.3,0.1-7.7-0.4-10.2-1.6c-2.5-1.1-4.2-2.9-5.2-5.4
				C172.6,49.7,172.4,47.7,172.8,45.7z M91.4,97.6c0.7-2,2-3.9,3.7-5.7c1.4-1.4,3.2-2.6,5.2-3.4c2-0.9,4-1.3,6-1.2l0.6,2.3
				c0.2,0.7,0.2,1.4,0.1,2c-0.2,0.6-0.4,1.2-0.9,1.6c-0.4,0.4-0.8,0.6-1.3,0.8c-1,0.2-2,0.5-2.9,1s-1.6,1-2.2,1.6
				c-1.3,1.3-2,2.6-2.2,4s0.2,2.7,1.3,3.7c0.8,0.8,2,1.2,3.4,1.1s3.3-0.8,5.7-1.9c3.9-2,7.4-2.9,10.4-2.8s5.6,1.3,7.8,3.5
				c1.8,1.8,2.9,3.8,3.4,6.1c0.5,2.3,0.3,4.5-0.5,6.9c-0.8,2.3-2.2,4.5-4.3,6.5c-1.9,1.8-4,3.1-6.6,4c-2.5,0.8-5.1,1.2-7.6,1.1
				l-0.7-2.8c-0.1-0.5-0.1-1,0.1-1.5s0.4-0.9,0.8-1.3c0.5-0.5,1.2-0.9,1.9-1c1.4-0.2,2.9-0.7,4.3-1.2c1.5-0.6,2.6-1.2,3.3-2
				c1.7-1.6,2.6-3.3,2.8-5.1c0.2-1.8-0.4-3.4-1.8-4.8c-1-1-2.3-1.5-3.9-1.4s-3.8,0.7-6.4,1.8c-3.9,1.8-7.3,2.7-10,2.6
				c-2.7,0-5.1-1-6.9-2.9c-1.6-1.6-2.6-3.4-3-5.4C90.6,101.7,90.7,99.6,91.4,97.6z M68.7,123.2l45.1,9.5l-2.6,3.7
				c-0.5,0.7-1.1,1.2-1.9,1.5s-1.6,0.4-2.4,0.2l-7.1-1.5L88,153.1l3.7,6.2c0.4,0.7,0.7,1.5,0.6,2.3c0,0.8-0.3,1.6-0.8,2.3l-2.6,3.7
				l-23.6-39.5L68.7,123.2z M55,143l5.8,3L55,157.4l31.8,16.2l-3,5.9L52,163.3l-5.8,11.4l-5.8-3L55,143z M36.6,182.3l39.6,14.5
				l-2.3,6.3l-39.6-14.5L36.6,182.3z M26.5,213.5c0.5-2,1.3-3.8,2.6-5.7c1.2-1.8,2.7-3.2,4.4-4.2l1.7,1.6c0.5,0.5,0.9,1,1.1,1.7
				c0.2,0.6,0.2,1.2,0.1,1.8c-0.1,0.5-0.3,0.9-0.7,1.4c-0.8,0.7-1.4,1.5-1.9,2.4s-0.8,1.7-1,2.5c-0.4,1.8-0.3,3.3,0.3,4.6
				c0.6,1.3,1.6,2.1,3.1,2.5c1.1,0.3,2.3,0,3.4-0.9s2.4-2.4,3.8-4.6c2.3-3.8,4.7-6.4,7.3-7.9c2.6-1.5,5.4-1.9,8.4-1.2
				c2.4,0.6,4.5,1.7,6.1,3.3c1.6,1.6,2.7,3.7,3.3,6.1c0.5,2.4,0.5,5-0.2,7.7c-0.6,2.5-1.7,4.8-3.4,6.9c-1.7,2-3.7,3.7-5.9,5l-2.1-2
				c-0.4-0.4-0.6-0.8-0.7-1.3s-0.1-1,0-1.6c0.2-0.7,0.5-1.4,1.1-1.9c1.1-1,2.1-2.1,3-3.4s1.5-2.4,1.7-3.4c0.5-2.3,0.4-4.2-0.3-5.8
				c-0.7-1.6-2.1-2.7-4.1-3.1c-1.4-0.3-2.7,0-4.1,0.9c-1.3,0.9-2.8,2.6-4.5,5c-2.4,3.6-4.7,6.2-7.1,7.6c-2.3,1.4-4.8,1.8-7.4,1.2
				c-2.2-0.5-4-1.5-5.4-2.9c-1.4-1.5-2.4-3.2-2.9-5.3C25.9,218.2,25.9,215.9,26.5,213.5z M20.8,253.9c0.2-2.4,0.9-4.6,2.1-6.5
				s2.9-3.4,4.9-4.4s4.2-1.5,6.6-1.3c2.1,0.1,4,0.8,5.7,1.9c1.7,1.1,3,2.5,3.8,4.1c0.9,1.6,1.3,3.2,1.2,4.6v0.9l0,0
				c0.2-0.9,0.4-1.6,0.7-2.1c0.3-0.5,0.8-1,1.4-1.3L64.1,239l-0.3,5.2c-0.1,0.9-0.3,1.7-0.6,2.4c-0.4,0.7-0.9,1.3-1.8,1.8l-15.2,9.8
				l-0.4,6.1l16.5,1.1l-0.4,6.7l-42.1-2.7L20.8,253.9z M20.1,284l6.5-0.7l2.1,19.8l10.8-1.2l-1.7-16.1l6.4-0.7l1.7,16.1l11.8-1.3
				l-2.1-19.8l6.5-0.7l2.8,26.5l-42,4.5L20.1,284z M35.1,358.7c-0.3-0.9-0.3-1.7-0.1-2.4c0.2-0.8,0.7-1.4,1.3-2l22.5-18.7
				c1.3-1.1,2.8-2,4.7-2.7l0.1-0.2c-2,0.4-3.8,0.5-5.4,0.3l-29-3.5c-0.9-0.1-1.6-0.4-2.2-1c-0.6-0.5-1-1.2-1.3-2.1l-1.3-4.3
				l45.7,5.7l1.7,5.6l-35.3,29.5L35.1,358.7z M41.2,372.3l38.4-17.4l2.8,6.1L44,378.4L41.2,372.3z M70.1,423l-2.8-4.4
				c-0.5-0.7-0.7-1.4-0.8-2.1c-0.1-0.7,0.1-1.4,0.4-2.3L80.8,381l-0.1-0.1c-0.9,1.4-2,2.6-3.3,3.4l-22.8,14.8l-3.6-5.6l35.4-23
				l2.8,4.3c0.2,0.3,0.3,0.7,0.3,1.2s-0.1,1-0.3,1.5l-15,35.6l0.1,0.1c0.9-1.2,1.9-2.3,3.2-3.1l24.4-15.8l3.6,5.6L70.1,423z
				 M128.1,434.7c-0.8,2.8-2.4,5.4-4.8,7.8L105,460.6l-4.7-4.7l18.3-18.1c1.5-1.4,2.4-3,2.9-4.7s0.5-3.4,0-5.2
				c-0.5-1.7-1.5-3.3-2.9-4.8c-1.5-1.5-3.1-2.5-4.8-3c-1.7-0.5-3.5-0.5-5.2,0s-3.3,1.4-4.8,2.9l-18.2,18l-4.7-4.7l18.3-18.1
				c2.4-2.4,5-3.9,7.8-4.7s5.7-0.8,8.5,0.1c2.8,0.8,5.4,2.5,7.8,4.9s4,5,4.8,7.8C128.9,429.1,128.9,431.9,128.1,434.7z M213,516.5
				l-6.2-1.6l8.6-32.3c-0.3,0.5-0.8,0.9-1.3,1.2l-3.1,1.8c-0.5,0.3-1,0.5-1.5,0.5c-0.5,0.1-0.9,0.1-1.4,0c-0.8-0.2-1.4-0.7-1.8-1.5
				l-1.5-2.8l12.9-7.6l6,1.6L213,516.5z M260,514.5l-5.8-0.6l-1,8.9l-6.4-0.7l1-8.9l-19.3-2.1l0.2-5.3c0-0.3,0.1-0.6,0.3-1
				c0.2-0.4,0.4-0.7,0.6-1l19.3-22.3c0.4-0.5,0.8-0.8,1.4-1.1c0.5-0.3,1-0.4,1.4-0.3l6.3,0.7l-2.9,26.7l5.8,0.6L260,514.5z
				 M300.8,512.1c-1.1,3.3-2.7,5.9-5,7.8c-2.3,1.9-5.1,2.9-8.3,3.1c-3.3,0.2-6.2-0.5-8.7-2c-2.5-1.6-4.5-3.9-5.9-7.1
				c-1.5-3.2-2.3-7-2.6-11.4c-0.3-4.5,0.1-8.3,1.2-11.7c1.1-3.3,2.7-5.9,5-7.8c2.3-1.9,5.1-2.9,8.3-3.1s6.2,0.5,8.7,2.1s4.5,4,6,7.1
				c1.5,3.2,2.3,7,2.6,11.4C302.3,504.9,301.9,508.8,300.8,512.1z M340.1,513.8l-6.2,1.6l-2.2-8.7l-18.9,4.7l-1.7-5
				c-0.1-0.3-0.1-0.6-0.1-1s0.1-0.8,0.2-1.1l10.4-27.5c0.2-0.6,0.5-1.1,0.9-1.5s0.8-0.7,1.2-0.8l6.1-1.5l6.5,26l5.7-1.4l1.6,6.2
				l-5.7,1.4L340.1,513.8z M271.4,462.4c-105.2,0-190.8-85.6-190.8-190.9S166.3,80.7,271.4,80.7s190.8,85.6,190.8,190.9
				S376.6,462.4,271.4,462.4z M447.9,449.2c-0.7,2-2,3.9-3.8,5.6c-1.5,1.4-3.2,2.5-5.3,3.3c-2,0.9-4,1.2-6,1.1l-0.6-2.3
				c-0.2-0.7-0.2-1.4,0-2s0.5-1.2,0.9-1.6c0.4-0.4,0.8-0.6,1.3-0.8c1-0.2,2-0.5,2.9-1s1.7-1,2.2-1.5c1.3-1.2,2.1-2.6,2.3-4
				s-0.2-2.7-1.2-3.8c-0.8-0.9-1.9-1.2-3.4-1.1c-1.4,0.1-3.3,0.7-5.7,1.8c-4,1.9-7.5,2.8-10.5,2.6s-5.6-1.4-7.7-3.6
				c-1.7-1.8-2.8-3.9-3.2-6.1c-0.4-2.3-0.2-4.5,0.6-6.8c0.9-2.3,2.3-4.4,4.4-6.4c1.9-1.8,4.1-3.1,6.6-3.8c2.5-0.8,5.1-1.1,7.7-0.9
				l0.7,2.8c0.1,0.5,0.1,1-0.1,1.5c-0.2,0.5-0.5,0.9-0.9,1.3c-0.6,0.5-1.2,0.8-2,1c-1.4,0.2-2.9,0.6-4.3,1.2
				c-1.5,0.6-2.6,1.2-3.3,1.9c-1.7,1.6-2.7,3.3-2.9,5c-0.3,1.8,0.3,3.4,1.7,4.8c1,1,2.3,1.5,3.9,1.5c1.6,0,3.8-0.6,6.4-1.7
				c4-1.7,7.3-2.5,10.1-2.4c2.7,0.1,5,1.1,6.9,3c1.5,1.6,2.5,3.4,2.9,5.4C448.8,445.1,448.6,447.2,447.9,449.2z M462.1,435.1
				l-32.4-27l4.3-5.1l32.4,27L462.1,435.1z M484.7,402.8c-0.3,2.1-1.1,4.3-2.4,6.4c-1.1,1.7-2.5,3.2-4.3,4.5s-3.7,2.1-5.6,2.4
				l-1.1-2.1c-0.3-0.6-0.5-1.3-0.5-1.9c0-0.6,0.2-1.2,0.5-1.7c0.3-0.4,0.6-0.8,1.1-1c1-0.4,1.8-1,2.6-1.6c0.8-0.7,1.4-1.4,1.8-2
				c1-1.5,1.4-3,1.3-4.4c-0.1-1.4-0.8-2.6-2.1-3.4c-1-0.6-2.2-0.7-3.5-0.3c-1.4,0.4-3.1,1.5-5.2,3c-3.4,2.8-6.6,4.5-9.6,5
				s-5.7,0-8.3-1.7c-2.1-1.4-3.6-3.1-4.6-5.2c-1-2.1-1.3-4.4-1-6.8c0.3-2.4,1.2-4.8,2.8-7.2c1.4-2.2,3.3-3.9,5.6-5.3
				c2.3-1.4,4.7-2.2,7.2-2.7l1.3,2.6c0.2,0.5,0.3,1,0.2,1.5s-0.2,1-0.5,1.5c-0.4,0.6-1,1.1-1.7,1.4c-1.3,0.5-2.7,1.3-4,2.1
				c-1.3,0.9-2.2,1.8-2.8,2.6c-1.3,1.9-1.8,3.8-1.7,5.6s1.1,3.2,2.8,4.3c1.2,0.8,2.5,0.9,4.1,0.5s3.5-1.5,5.9-3.1
				c3.5-2.6,6.5-4.2,9.2-4.7s5.2-0.1,7.4,1.4c1.9,1.2,3.2,2.7,4.1,4.6C484.6,398.7,484.9,400.7,484.7,402.8z M508.2,356.5
				c-0.3,0.8-0.8,1.4-1.3,1.9c-0.5,0.4-1.2,0.8-2.1,1l-35.3,7.3v0.1c1.7-0.1,3.3,0.2,4.7,0.8l25.1,10.4l-2.5,6.1l-39-16.2l1.9-4.7
				c0.2-0.4,0.4-0.7,0.8-1c0.4-0.3,0.9-0.5,1.4-0.6l37.9-7.8l0.1-0.1c-1.5,0-3-0.3-4.4-0.9l-26.8-11.1l2.5-6.1l39,16.2L508.2,356.5z
				 M514.5,336.9l-6.4-1.3l4-19.5l-10.7-2.2l-3.3,15.9l-6.3-1.3l3.3-15.9l-11.6-2.4l-4,19.5l-6.4-1.3l5.4-26.1l41.3,8.6L514.5,336.9
				z M495.3,285.9l27.2,0.4l-0.1,6.6l-42.2-0.7l0.1-5.1c0-0.4,0.1-0.8,0.4-1.2c0.3-0.4,0.6-0.8,1.1-1.1l32.3-21.2v-0.1
				c-1.4,0.5-2.9,0.8-4.4,0.8l-29.1-0.5l0.1-6.6l42.2,0.7l-0.1,5.2c0,0.9-0.2,1.6-0.5,2.2c-0.3,0.6-0.9,1.2-1.6,1.7l-30.1,19.8v0.1
				C492.2,286.3,493.7,285.9,495.3,285.9z"/>
		</g>
	</g>
	<g>
		<g>
			<path class="st1" d="M636.3,286.7h40.1c9.5,0,18.3,2.3,26.2,6.9c7.9,4.6,14.2,10.8,18.8,18.7s6.9,16.6,6.9,26.1
				s-2.3,18.2-6.9,26.1c-4.6,7.9-10.9,14.1-18.8,18.7c-7.9,4.6-16.7,6.9-26.2,6.9h-40.1V286.7z M694.4,370.1
				c5.5-3.2,9.8-7.6,12.9-13.2c3.2-5.6,4.7-11.7,4.7-18.5c0-6.7-1.6-12.9-4.7-18.5c-3.2-5.6-7.4-10-12.9-13.3
				c-5.4-3.2-11.4-4.8-18-4.8h-23.8v73.1h23.8C682.9,375,688.9,373.3,694.4,370.1z"/>
			<path class="st1" d="M742.1,390.1V286.8h16.3v103.3L742.1,390.1L742.1,390.1z"/>
			<path class="st0" d="M805.7,286.7h79v16h-31.3v87.4h-16.3v-87.4h-31.4L805.7,286.7L805.7,286.7z"/>
			<path class="st0" d="M888.5,311.6c4.7-8.1,11.1-14.5,19.2-19.1c8.1-4.7,17.1-7,26.9-7c9.9,0,18.9,2.3,27,7s14.6,11,19.3,19.1
				c4.7,8.1,7.1,17,7.1,26.9c0,9.8-2.4,18.7-7.1,26.8s-11.1,14.5-19.3,19.1c-8.1,4.7-17.1,7-27,7c-9.8,0-18.8-2.3-26.9-7
				s-14.6-11-19.2-19.1c-4.7-8.1-7-17-7-26.8C881.5,328.6,883.8,319.6,888.5,311.6z M902.7,357.1c3.3,5.7,7.7,10.1,13.4,13.4
				c5.6,3.2,11.9,4.9,18.7,4.9c6.8,0,13.1-1.6,18.7-4.9c5.6-3.2,10.1-7.7,13.4-13.4s4.9-11.9,4.9-18.7s-1.6-13.1-4.9-18.7
				c-3.3-5.6-7.7-10.1-13.4-13.4c-5.6-3.3-11.9-4.9-18.7-4.9c-6.8,0-13.1,1.6-18.7,4.9c-5.6,3.3-10.1,7.7-13.4,13.4
				c-3.3,5.6-4.9,11.9-4.9,18.7S899.4,351.4,902.7,357.1z"/>
			<path class="st1" d="M1001.9,390.1V286.7h37.5c5.9,0,11.3,1.4,16.2,4.1c4.9,2.7,8.7,6.5,11.6,11.2c2.8,4.8,4.2,10.1,4.2,16
				c0,5.2-1.3,9.9-3.8,14.2s-5.7,7.6-9.5,10s-7.5,3.7-11.1,3.7l-2.1,0.1v0.1c2.1,0.2,3.9,0.7,5.2,1.4c1.3,0.7,2.5,1.8,3.5,3.1
				l29.2,39.4h-12.7c-2.2,0-4.1-0.4-5.8-1.1c-1.7-0.7-3.3-2.1-4.7-4l-26.4-35.5h-14.9V390h-16.4V390.1z M1018.2,333.4h20.5
				c3,0,5.8-0.7,8.3-2s4.5-3.2,5.9-5.6c1.4-2.4,2.2-5,2.2-7.9c0-3-0.7-5.6-2.2-7.9c-1.4-2.3-3.4-4.1-5.9-5.4
				c-2.5-1.3-5.3-1.9-8.4-1.9h-20.4V333.4z"/>
			<path class="st1" d="M1091,390.1V286.8h16.3v103.3L1091,390.1L1091,390.1z"/>
			<path class="st1" d="M1214.2,286.7V390h-12.4c-1,0-1.9-0.3-2.9-1c-1-0.6-1.9-1.6-2.7-2.7L1143,308h-0.4c1.4,3.4,2.1,7,2.1,10.8
				l-0.1,71.1h-16.2V286.7h12.7c2.1,0,3.9,0.4,5.4,1.1c1.5,0.7,2.9,2.1,4.2,3.9l49.7,72.9h0.3c-1.7-3.8-2.6-7.6-2.6-11.4v-66.5
				H1214.2z"/>
			<path class="st1" d="M1235.1,311.6c4.7-8.1,11.1-14.5,19.2-19.1c8.1-4.7,17.1-7,26.9-7c9.9,0,18.9,2.3,27,7s14.6,11,19.3,19.1
				c4.7,8.1,7.1,17,7.1,26.9c0,9.8-2.4,18.7-7.1,26.8s-11.1,14.5-19.3,19.1c-8.1,4.7-17.1,7-27,7c-9.8,0-18.8-2.3-26.9-7
				s-14.6-11-19.2-19.1c-4.7-8.1-7-17-7-26.8C1228,328.6,1230.4,319.6,1235.1,311.6z M1249.2,357.1c3.3,5.7,7.7,10.1,13.4,13.4
				c5.6,3.2,11.9,4.9,18.7,4.9c6.8,0,13.1-1.6,18.7-4.9c5.6-3.2,10.1-7.7,13.4-13.4s4.9-11.9,4.9-18.7s-1.6-13.1-4.9-18.7
				c-3.3-5.6-7.7-10.1-13.4-13.4c-5.6-3.3-11.9-4.9-18.7-4.9c-6.8,0-13.1,1.6-18.7,4.9c-5.6,3.3-10.1,7.7-13.4,13.4
				c-3.3,5.6-4.9,11.9-4.9,18.7S1246,351.4,1249.2,357.1z"/>
		</g>
		<g>
			<path class="st0" d="M653.9,222c1.9,3.5,4.6,6.1,8.1,8.1c3.5,1.9,7.5,2.9,12.1,2.9s8.7-1,12.2-2.9s6.2-4.6,8.1-8.1
				c1.9-3.5,2.9-7.4,2.9-12v-56.9H712V210c0,7.4-1.6,13.9-4.7,19.6c-3.2,5.7-7.6,10.1-13.3,13.3c-5.7,3.2-12.3,4.7-19.8,4.7
				c-7.4,0-14-1.6-19.7-4.7c-5.7-3.2-10.2-7.6-13.3-13.3c-3.2-5.7-4.7-12.2-4.7-19.6v-56.9h14.7V210C651,214.6,652,218.5,653.9,222z
				"/>
			<path class="st0" d="M805.3,153.2v93.3h-11.2c-0.9,0-1.8-0.3-2.6-0.9c-0.9-0.6-1.7-1.4-2.4-2.4L741,172.5h-0.3
				c1.3,3.1,1.9,6.3,1.9,9.8l-0.1,64.2h-14.7v-93.3h11.5c1.9,0,3.5,0.3,4.9,1c1.3,0.7,2.6,1.9,3.8,3.6l44.9,65.9h0.3
				c-1.6-3.4-2.3-6.9-2.3-10.3v-60.1L805.3,153.2L805.3,153.2z"/>
			<path class="st0" d="M824.4,246.5v-93.3h14.7v93.3H824.4z"/>
			<path class="st1" d="M938.9,153.2l-40.5,93.3h-13l-40.5-93.3h9.8c2,0,3.7,0.5,5.2,1.4s2.6,2.3,3.4,4.1l25.6,59.4
				c1.5,3.3,2.4,7.2,2.7,11.7h0.5c0.3-4.4,1.3-8.3,2.7-11.7l25.6-59.4c0.8-1.7,1.9-3.1,3.4-4c1.5-1,3.2-1.4,5.2-1.4h9.9V153.2z"/>
			<path class="st1" d="M944.8,246.5v-93.3h58.8v14.5h-44.1v24h35.8v14.2h-35.8v26.2h44.1v14.5h-58.8V246.5z"/>
			<path class="st1" d="M1016.8,246.5v-93.3h33.9c5.3,0,10.2,1.2,14.6,3.7s7.9,5.8,10.4,10.1c2.5,4.3,3.8,9.1,3.8,14.4
				c0,4.7-1.1,9-3.4,12.8s-5.1,6.9-8.5,9.1s-6.8,3.3-10,3.4l-1.9,0.1v0.1c1.9,0.2,3.5,0.7,4.7,1.3c1.2,0.7,2.3,1.6,3.1,2.8
				l26.3,35.6h-11.5c-2,0-3.7-0.3-5.3-1c-1.6-0.7-3-1.9-4.2-3.6l-23.9-32h-13.3v36.7h-14.8V246.5z M1031.6,195.4h18.5
				c2.7,0,5.2-0.6,7.5-1.8c2.3-1.2,4-2.9,5.3-5s2-4.5,2-7.1c0-2.7-0.7-5.1-2-7.2s-3.1-3.7-5.3-4.9c-2.3-1.2-4.8-1.7-7.6-1.7h-18.4
				V195.4z"/>
			<path class="st1" d="M1102.9,243.8c-5.3-2.6-9.8-6-13.7-10.2l3.2-5.5c0.6-1,1.4-1.7,2.4-2.2s2.1-0.8,3.4-0.8
				c1.7,0,3.2,0.5,4.6,1.4c2.6,1.8,5.5,3.4,8.7,4.7c3.2,1.3,6,2,8.2,2c5.1,0,9.3-1.2,12.4-3.6s4.7-5.9,4.7-10.3c0-3.1-1.3-5.8-4-8.3
				c-2.7-2.4-7-4.8-12.9-7.1c-9-3.3-15.6-7.1-19.9-11.4s-6.4-9.4-6.4-15.3c0-4.9,1.2-9.3,3.6-13.1c2.4-3.8,5.7-6.8,10-9
				c4.3-2.1,9.2-3.2,14.7-3.2c4.4,0,8.9,0.9,13.5,2.6s8.3,4.2,11.3,7.4l-2.6,4.6c-0.8,1.4-1.8,2.5-3,3.2c-1.2,0.8-2.5,1.1-3.8,1.1
				c-1.1,0-2.2-0.3-3.3-0.8c-1.9-1.3-4-2.2-6.2-2.8c-2.2-0.6-4.2-0.9-5.9-0.9c-4,0-7.3,1-9.8,2.9c-2.5,2-3.8,4.6-3.8,7.9
				c0,2.6,1.2,4.9,3.7,6.9s6.4,4,11.9,5.9c9.3,3,16.2,6.9,20.8,11.7c4.6,4.8,6.8,10.7,6.8,17.5c0,5.5-1.4,10.4-4.1,14.8
				c-2.7,4.3-6.5,7.7-11.4,10.1c-4.9,2.4-10.4,3.6-16.7,3.6C1113.6,247.7,1108.1,246.4,1102.9,243.8z"/>
			<path class="st1" d="M1163.8,246.5v-93.3h14.7v93.3H1163.8z"/>
			<path class="st1" d="M1187.1,153.2h71.4v14.4h-28.2v78.9h-14.7v-78.9h-28.4v-14.4H1187.1z"/>
			<path class="st1" d="M1334.6,246.5h-10c-1.9,0-3.6-0.5-5.2-1.5c-1.5-1-2.7-2.3-3.4-4.1l-6.4-14.7h-44.7l-6.4,14.7
				c-0.7,1.7-1.9,3.1-3.4,4.1s-3.2,1.5-5.1,1.5h-10l40.8-93.3h13L1334.6,246.5z M1303.8,212.7l-13.7-31.4c-1-2.3-1.7-4.1-2-5.4
				s-0.5-2.7-0.5-4.3h-0.7c0,1.5-0.2,2.9-0.5,4.3c-0.3,1.3-0.9,3.1-1.9,5.4l-13.7,31.4H1303.8z"/>
			<path id="accento_00000073709841923082307040000002641854218662365838_" class="st1" d="M1265.5,120c1.5,3.9,4.8,10.9,6.7,15.1
				c1.2,2.7,4,6.5,8,6.5c5.3,0,7,0,8.5,0c-1.1-2.4-4.9-11.8-7.3-16.2c-2.3-4.4-6-5.4-8.8-5.5C1269.9,119.9,1265.5,120,1265.5,120z"
				/>
		</g>
	</g>
</g>
</svg>
