<?xml version="1.0" encoding="UTF-8"?>
<svg id="Livello_1" data-name="Livello 1" xmlns="http://www.w3.org/2000/svg" xmlns:xlink="http://www.w3.org/1999/xlink" viewBox="0 0 700.85 229.02">
  <defs>
    <style>
      .cls-1 {
        fill: url(#linear-gradient-12);
      }

      .cls-1, .cls-2, .cls-3, .cls-4, .cls-5, .cls-6, .cls-7, .cls-8, .cls-9, .cls-10, .cls-11, .cls-12, .cls-13, .cls-14, .cls-15, .cls-16, .cls-17, .cls-18, .cls-19, .cls-20, .cls-21, .cls-22, .cls-23, .cls-24, .cls-25, .cls-26, .cls-27, .cls-28, .cls-29, .cls-30, .cls-31, .cls-32, .cls-33, .cls-34, .cls-35, .cls-36, .cls-37, .cls-38, .cls-39, .cls-40, .cls-41, .cls-42, .cls-43, .cls-44, .cls-45, .cls-46, .cls-47, .cls-48, .cls-49, .cls-50, .cls-51, .cls-52, .cls-53, .cls-54, .cls-55, .cls-56, .cls-57, .cls-58, .cls-59 {
        stroke-width: 0px;
      }

      .cls-2 {
        fill: url(#linear-gradient-17);
      }

      .cls-3 {
        fill: url(#linear-gradient-19);
      }

      .cls-4 {
        fill: url(#linear-gradient-33);
      }

      .cls-60 {
        stroke: url(#linear-gradient-37);
      }

      .cls-60, .cls-13, .cls-61, .cls-62, .cls-63, .cls-64 {
        fill: none;
      }

      .cls-60, .cls-61, .cls-62, .cls-63, .cls-64 {
        stroke-miterlimit: 10;
      }

      .cls-5 {
        fill: url(#linear-gradient);
      }

      .cls-6 {
        fill: url(#linear-gradient-21);
      }

      .cls-7 {
        fill: url(#linear-gradient-6);
      }

      .cls-8 {
        fill: url(#linear-gradient-42);
      }

      .cls-9 {
        fill: url(#Sfumatura_senza_nome_562);
      }

      .cls-10 {
        fill: url(#linear-gradient-15);
      }

      .cls-11 {
        fill: url(#linear-gradient-11);
      }

      .cls-12 {
        fill: url(#linear-gradient-5);
      }

      .cls-14 {
        fill: url(#linear-gradient-31);
      }

      .cls-15 {
        fill: url(#linear-gradient-34);
      }

      .cls-16 {
        fill: url(#linear-gradient-41);
      }

      .cls-17 {
        fill: #a2a4d2;
      }

      .cls-18 {
        fill: url(#linear-gradient-40);
      }

      .cls-19 {
        fill: url(#Sfumatura_senza_nome_4);
      }

      .cls-20 {
        fill: url(#linear-gradient-13);
      }

      .cls-21 {
        fill: url(#linear-gradient-23);
      }

      .cls-22 {
        fill: url(#linear-gradient-25);
      }

      .cls-23 {
        fill: url(#linear-gradient-43);
      }

      .cls-24 {
        fill: url(#linear-gradient-16);
      }

      .cls-25 {
        fill: url(#Sfumatura_senza_nome_4-2);
      }

      .cls-26 {
        fill: url(#linear-gradient-22);
      }

      .cls-27 {
        fill: url(#linear-gradient-54);
      }

      .cls-28 {
        fill: url(#linear-gradient-55);
      }

      .cls-29 {
        fill: url(#linear-gradient-35);
      }

      .cls-30 {
        fill: url(#linear-gradient-50);
      }

      .cls-61 {
        stroke: url(#linear-gradient-38);
      }

      .cls-31 {
        fill: url(#linear-gradient-32);
      }

      .cls-32 {
        fill: url(#linear-gradient-20);
      }

      .cls-33 {
        fill: #8b8bc3;
      }

      .cls-34 {
        fill: url(#linear-gradient-14);
      }

      .cls-35 {
        fill: url(#linear-gradient-2);
      }

      .cls-36 {
        fill: url(#linear-gradient-52);
      }

      .cls-37 {
        fill: url(#linear-gradient-45);
      }

      .cls-38 {
        fill: url(#linear-gradient-7);
      }

      .cls-39 {
        fill: url(#linear-gradient-39);
      }

      .cls-40 {
        fill: url(#linear-gradient-3);
      }

      .cls-41 {
        fill: url(#Sfumatura_senza_nome_985);
      }

      .cls-42 {
        fill: url(#linear-gradient-9);
      }

      .cls-43 {
        fill: url(#linear-gradient-27);
      }

      .cls-44 {
        fill: url(#linear-gradient-53);
      }

      .cls-45 {
        fill: url(#linear-gradient-36);
      }

      .cls-46 {
        fill: url(#linear-gradient-48);
      }

      .cls-47 {
        fill: url(#linear-gradient-49);
      }

      .cls-48 {
        fill: url(#linear-gradient-8);
      }

      .cls-62 {
        stroke: url(#linear-gradient-46);
      }

      .cls-49 {
        fill: url(#linear-gradient-24);
      }

      .cls-50 {
        fill: url(#linear-gradient-26);
      }

      .cls-51 {
        fill: url(#linear-gradient-18);
      }

      .cls-52 {
        fill: url(#linear-gradient-51);
      }

      .cls-53 {
        fill: url(#linear-gradient-30);
      }

      .cls-54 {
        fill: url(#linear-gradient-44);
      }

      .cls-55 {
        fill: url(#linear-gradient-29);
      }

      .cls-63 {
        stroke: url(#linear-gradient-505);
        filter: url(#sofGlow);
        /*stroke: #b39ecc;*/
      }

      .cls-56 {
        fill: url(#linear-gradient-28);
      }

      .cls-57 {
        fill: url(#linear-gradient-10);
      }

      .cls-64 {
        stroke: url(#linear-gradient-47);
      }

      .cls-58 {
        fill: url(#linear-gradient-4);
      }

      .cls-59 {
        fill: #c2add4;
      }


    </style>

    	<filter id="sofGlow">
		    <feGaussianBlur stdDeviation="5" result="coloredBlur">
                <animate attributeName="stdDeviation" from="25" to="0" begin="100s" calcMode="spline" dur="1s" keySplines="0 0 0 1" fill="freeze"/>

        </feGaussianBlur>
        <feMerge>
            <feMergeNode in="coloredBlur"/>
            <feMergeNode in="SourceGraphic"/>
        </feMerge>
	</filter>

  <linearGradient id="linear-gradient-505" x1="0%" y1="0" x2="0%" y2="0" gradientUnits="userSpaceOnUse" >
     <animate attributeName="x1" dur="1.3s" from="0%" to="100%" begin="1.5s" fill="freeze" calcMode="spline"
                          keySplines="0 0 0 1"/>
      <animate attributeName="x2" dur="0.4s" from="0%" to="115%" begin="1.5s" fill="freeze" calcMode="spline"
                          keySplines="0 0 0.5 0.5"/>
      <animate attributeName="y2" dur="1.3s" from="0%" to="40%" begin="1.2s" fill="freeze" calcMode="spline"
                        keySplines="0 0 0 1"/>
      <stop offset="0" stop-color="#b39ecc" stop-opacity="1"/>
      <stop offset="50%" stop-color="#ffbf00" stop-opacity="1"/>
      <stop offset="100%" stop-color="#b39ecc" stop-opacity="0"/>
    </linearGradient>

    <linearGradient id="linear-gradient" x1="287.81" y1="197.51" x2="298.62" y2="186.7" gradientUnits="userSpaceOnUse">
      <stop offset="0" stop-color="#dcd9ee"/>
      <stop offset=".29" stop-color="#d9d4eb"/>
      <stop offset=".62" stop-color="#d1c6e3"/>
      <stop offset=".97" stop-color="#c3afd5"/>
      <stop offset="1" stop-color="#c2add4"/>
    </linearGradient>
    <linearGradient id="linear-gradient-2" x1="278.1" y1="114.51" x2="293.64" y2="98.97" gradientUnits="userSpaceOnUse">
      <stop offset="0" stop-color="#dcd9ee"/>
      <stop offset=".35" stop-color="#d4cde6"/>
      <stop offset=".99" stop-color="#c2add4"/>
      <stop offset="1" stop-color="#c2add4"/>
    </linearGradient>
    <linearGradient id="linear-gradient-3" x1="386.98" y1="177.85" x2="420.31" y2="120.12" gradientTransform="translate(552.63 -254.66) rotate(90)" gradientUnits="userSpaceOnUse">
      <stop offset="0" stop-color="#c2add4"/>
      <stop offset="1" stop-color="#9a94c0"/>
    </linearGradient>
    <linearGradient id="linear-gradient-4" x1="383.67" y1="152.23" x2="416.23" y2="182.34" gradientUnits="userSpaceOnUse">
      <stop offset="0" stop-color="#c2add4"/>
      <stop offset=".28" stop-color="#cbbcdd"/>
      <stop offset=".67" stop-color="#dcd9ee"/>
    </linearGradient>
    <linearGradient id="linear-gradient-5" x1="226.41" y1="204.94" x2="158.18" y2="204.94" gradientUnits="userSpaceOnUse">
      <stop offset=".27" stop-color="#fff"/>
      <stop offset=".34" stop-color="#f5f2f8"/>
      <stop offset=".48" stop-color="#e4dbed"/>
      <stop offset=".61" stop-color="#d9cde6"/>
      <stop offset=".73" stop-color="#d6c9e4"/>
    </linearGradient>
    <linearGradient id="linear-gradient-6" x1="226.41" y1="200.19" x2="158.18" y2="200.19" gradientUnits="userSpaceOnUse">
      <stop offset="0" stop-color="#dcd9ee"/>
      <stop offset=".47" stop-color="#cec2e0"/>
      <stop offset="1" stop-color="#c2add4"/>
    </linearGradient>
    <linearGradient id="linear-gradient-7" x1="223.4" y1="186.79" x2="161.46" y2="186.79" gradientUnits="userSpaceOnUse">
      <stop offset="0" stop-color="#fff"/>
      <stop offset=".25" stop-color="#faf8fb"/>
      <stop offset=".6" stop-color="#ece6f2"/>
      <stop offset="1" stop-color="#d6c9e4"/>
    </linearGradient>
    <linearGradient id="linear-gradient-8" x1="223.4" y1="186.79" x2="161.99" y2="186.79" gradientUnits="userSpaceOnUse">
      <stop offset=".11" stop-color="#dcd9ee"/>
      <stop offset=".16" stop-color="#d9d4eb"/>
      <stop offset=".44" stop-color="#ccbede"/>
      <stop offset=".72" stop-color="#c4b1d6"/>
      <stop offset=".97" stop-color="#c2add4"/>
    </linearGradient>
    <linearGradient id="linear-gradient-9" x1="223.4" y1="159.79" x2="159.9" y2="159.79" gradientUnits="userSpaceOnUse">
      <stop offset=".11" stop-color="#dcd9ee"/>
      <stop offset=".16" stop-color="#d9d4eb"/>
      <stop offset=".45" stop-color="#ccbede"/>
      <stop offset=".74" stop-color="#c4b1d6"/>
      <stop offset="1" stop-color="#c2add4"/>
    </linearGradient>
    <linearGradient id="linear-gradient-10" x1="159.9" y1="155.76" x2="206.56" y2="155.76" gradientUnits="userSpaceOnUse">
      <stop offset="0" stop-color="#d6c9e4"/>
      <stop offset=".26" stop-color="#dcd1e8"/>
      <stop offset=".67" stop-color="#ede8f3"/>
      <stop offset="1" stop-color="#fff"/>
    </linearGradient>
    <linearGradient id="linear-gradient-11" x1="201.75" y1="128.64" x2="182.82" y2="128.64" gradientUnits="userSpaceOnUse">
      <stop offset=".2" stop-color="#dcd9ee"/>
      <stop offset=".45" stop-color="#d9d2e9"/>
      <stop offset=".97" stop-color="#d6c9e4"/>
      <stop offset=".98" stop-color="#aaa3b2"/>
      <stop offset=".99" stop-color="#89858c"/>
      <stop offset="1" stop-color="#747374"/>
      <stop offset="1" stop-color="#6d6d6c"/>
    </linearGradient>
    <linearGradient id="Sfumatura_senza_nome_562" data-name="Sfumatura senza nome 562" x1="186.23" y1="125.13" x2="201.75" y2="125.13" gradientUnits="userSpaceOnUse">
      <stop offset="0" stop-color="#fff"/>
      <stop offset=".11" stop-color="#fff"/>
      <stop offset="1" stop-color="#fff"/>
    </linearGradient>
    <linearGradient id="linear-gradient-12" x1="201.75" y1="116.01" x2="187.54" y2="116.01" gradientUnits="userSpaceOnUse">
      <stop offset="0" stop-color="#dcd9ee"/>
      <stop offset=".66" stop-color="#cbbddd"/>
      <stop offset="1" stop-color="#c2add4"/>
    </linearGradient>
    <linearGradient id="linear-gradient-13" x1="195.91" y1="47.68" x2="189.68" y2="47.68" gradientUnits="userSpaceOnUse">
      <stop offset="0" stop-color="#dcd9ee"/>
      <stop offset=".73" stop-color="#c2add4"/>
    </linearGradient>
    <linearGradient id="linear-gradient-14" x1="187.68" y1="88.93" x2="197.64" y2="88.93" gradientUnits="userSpaceOnUse">
      <stop offset="0" stop-color="#c2add4"/>
      <stop offset=".56" stop-color="#ede7f2"/>
      <stop offset=".84" stop-color="#fff"/>
    </linearGradient>
    <linearGradient id="linear-gradient-15" x1="196.66" y1="89.88" x2="188.69" y2="89.88" gradientUnits="userSpaceOnUse">
      <stop offset=".17" stop-color="#dcd9ee"/>
      <stop offset=".26" stop-color="#d8d2ea"/>
      <stop offset=".73" stop-color="#c8b7da"/>
      <stop offset="1" stop-color="#c2add4"/>
    </linearGradient>
    <linearGradient id="linear-gradient-16" x1="201.75" y1="125.13" x2="204.42" y2="125.13" gradientUnits="userSpaceOnUse">
      <stop offset="0" stop-color="#fff"/>
      <stop offset=".12" stop-color="#f1edf5"/>
      <stop offset=".34" stop-color="#dcd1e6"/>
      <stop offset=".56" stop-color="#cdbddc"/>
      <stop offset=".78" stop-color="#c4b1d6"/>
      <stop offset="1" stop-color="#c2add4"/>
    </linearGradient>
    <linearGradient id="linear-gradient-17" x1="187.54" y1="125.13" x2="181.24" y2="125.13" gradientUnits="userSpaceOnUse">
      <stop offset="0" stop-color="#fff"/>
      <stop offset="0" stop-color="#fefefe"/>
      <stop offset=".28" stop-color="#e4dbec"/>
      <stop offset=".54" stop-color="#d1c1de"/>
      <stop offset=".77" stop-color="#c5b2d6"/>
      <stop offset=".96" stop-color="#c2add4"/>
    </linearGradient>
    <linearGradient id="linear-gradient-18" x1="196.91" y1="117.15" x2="183.01" y2="117.15" gradientUnits="userSpaceOnUse">
      <stop offset="0" stop-color="#fff"/>
      <stop offset="1" stop-color="#c2add4"/>
    </linearGradient>
    <linearGradient id="linear-gradient-19" x1="204.03" y1="105.32" x2="180.63" y2="105.32" gradientUnits="userSpaceOnUse">
      <stop offset="0" stop-color="#fff"/>
      <stop offset=".08" stop-color="#f9f7fa"/>
      <stop offset=".7" stop-color="#d1c1de"/>
      <stop offset="1" stop-color="#c2add4"/>
    </linearGradient>
    <linearGradient id="linear-gradient-20" x1="200.38" y1="100.28" x2="184.62" y2="100.28" gradientUnits="userSpaceOnUse">
      <stop offset=".03" stop-color="#dcd9ee"/>
      <stop offset=".33" stop-color="#d0c6e2"/>
      <stop offset=".72" stop-color="#c5b3d7"/>
      <stop offset="1" stop-color="#c2add4"/>
    </linearGradient>
    <linearGradient id="linear-gradient-21" x1="186.23" y1="128.64" x2="182.82" y2="128.64" gradientUnits="userSpaceOnUse">
      <stop offset="0" stop-color="#fff"/>
      <stop offset=".2" stop-color="#fbf9fc"/>
      <stop offset=".44" stop-color="#f0ebf4"/>
      <stop offset=".7" stop-color="#ded2e7"/>
      <stop offset=".97" stop-color="#c5b1d6"/>
      <stop offset="1" stop-color="#c2add4"/>
    </linearGradient>
    <linearGradient id="linear-gradient-22" x1="204.03" y1="105.32" x2="180.63" y2="105.32" gradientUnits="userSpaceOnUse">
      <stop offset="0" stop-color="#fff"/>
      <stop offset=".62" stop-color="#d6c8e2"/>
      <stop offset="1" stop-color="#c2add4"/>
    </linearGradient>
    <linearGradient id="linear-gradient-23" x1="256.45" y1="230.2" x2="293.55" y2="193.11" gradientUnits="userSpaceOnUse">
      <stop offset=".2" stop-color="#fff"/>
      <stop offset=".58" stop-color="#ede7f3"/>
      <stop offset="1" stop-color="#d6c9e4"/>
    </linearGradient>
    <linearGradient id="linear-gradient-24" x1="287.99" y1="102.96" x2="321.51" y2="69.45" gradientUnits="userSpaceOnUse">
      <stop offset="0" stop-color="#d6c9e4"/>
      <stop offset=".25" stop-color="#e2d9ec"/>
      <stop offset=".72" stop-color="#f7f4f9"/>
      <stop offset="1" stop-color="#fff"/>
    </linearGradient>
    <linearGradient id="linear-gradient-25" x1="244.73" y1="102.31" x2="337.32" y2="194.9" gradientUnits="userSpaceOnUse">
      <stop offset="0" stop-color="#fff"/>
      <stop offset=".04" stop-color="#fcfbfd"/>
      <stop offset=".42" stop-color="#e7dfef"/>
      <stop offset=".75" stop-color="#dacee6"/>
      <stop offset=".99" stop-color="#d6c9e4"/>
      <stop offset="1" stop-color="#d9cde6"/>
      <stop offset="1" stop-color="#e3dbed"/>
      <stop offset="1" stop-color="#f5f2f8"/>
      <stop offset="1" stop-color="#fff"/>
    </linearGradient>
    <linearGradient id="Sfumatura_senza_nome_4" data-name="Sfumatura senza nome 4" x1="428.86" y1="148.38" x2="467.51" y2="148.38" gradientUnits="userSpaceOnUse">
      <stop offset="0" stop-color="#fff"/>
      <stop offset=".09" stop-color="#d7d4e7"/>
      <stop offset=".19" stop-color="#b0abd0"/>
      <stop offset=".3" stop-color="#9088bd"/>
      <stop offset=".41" stop-color="#776eae"/>
      <stop offset=".52" stop-color="#665ba3"/>
      <stop offset=".63" stop-color="#5b4f9d"/>
      <stop offset=".75" stop-color="#584c9b"/>
    </linearGradient>
    <linearGradient id="linear-gradient-26" x1="369.26" y1="175.86" x2="421.25" y2="175.86" gradientUnits="userSpaceOnUse">
      <stop offset="0" stop-color="#fff"/>
      <stop offset=".14" stop-color="#f5f2f8"/>
      <stop offset=".45" stop-color="#e4dbed"/>
      <stop offset=".74" stop-color="#d9cde6"/>
      <stop offset="1" stop-color="#d6c9e4"/>
    </linearGradient>
    <linearGradient id="linear-gradient-27" x1="369.26" y1="132.16" x2="464.47" y2="132.16" gradientUnits="userSpaceOnUse">
      <stop offset="0" stop-color="#fff"/>
      <stop offset=".01" stop-color="#fdfdfe"/>
      <stop offset=".22" stop-color="#ece6f2"/>
      <stop offset=".44" stop-color="#dfd5ea"/>
      <stop offset=".68" stop-color="#d8cce5"/>
      <stop offset="1" stop-color="#d6c9e4"/>
    </linearGradient>
    <linearGradient id="linear-gradient-28" x1="226.41" y1="193.53" x2="158.18" y2="193.53" gradientUnits="userSpaceOnUse">
      <stop offset="0" stop-color="#dcd9ee"/>
      <stop offset=".47" stop-color="#cec2e0"/>
      <stop offset="1" stop-color="#c2add4"/>
    </linearGradient>
    <linearGradient id="linear-gradient-29" x1="428.86" y1="148.38" x2="467.51" y2="148.38" gradientUnits="userSpaceOnUse">
      <stop offset="0" stop-color="#fff"/>
      <stop offset=".04" stop-color="#f9f8fb"/>
      <stop offset=".22" stop-color="#eae3f1"/>
      <stop offset=".42" stop-color="#ded4e9"/>
      <stop offset=".65" stop-color="#d8cbe5"/>
      <stop offset="1" stop-color="#d6c9e4"/>
    </linearGradient>
    <linearGradient id="Sfumatura_senza_nome_985" data-name="Sfumatura senza nome 985" x1="591.84" y1="151.89" x2="598.33" y2="149.15" gradientUnits="userSpaceOnUse">
      <stop offset=".08" stop-color="#6d6d6c"/>
      <stop offset=".21" stop-color="#727272"/>
      <stop offset=".39" stop-color="#818184"/>
      <stop offset=".6" stop-color="#9a99a1"/>
      <stop offset=".82" stop-color="#bdbac9"/>
      <stop offset="1" stop-color="#dcd9ee"/>
    </linearGradient>
    <linearGradient id="linear-gradient-30" x1="594.39" y1="191.88" x2="658.85" y2="167.8" gradientUnits="userSpaceOnUse">
      <stop offset="0" stop-color="#fff"/>
      <stop offset=".11" stop-color="#f8f8f8"/>
      <stop offset=".13" stop-color="#f5f4f6"/>
      <stop offset=".33" stop-color="#dfd5e7"/>
      <stop offset=".52" stop-color="#cebfdc"/>
      <stop offset=".7" stop-color="#c5b1d6"/>
      <stop offset=".87" stop-color="#c2add4"/>
    </linearGradient>
    <linearGradient id="Sfumatura_senza_nome_4-2" data-name="Sfumatura senza nome 4" x1="500.4" y1="199.82" x2="569.89" y2="199.82" xlink:href="#Sfumatura_senza_nome_4"/>
    <linearGradient id="linear-gradient-31" x1="553.26" y1="165.12" x2="562.54" y2="155.84" gradientUnits="userSpaceOnUse">
      <stop offset=".08" stop-color="#c2add4"/>
      <stop offset=".14" stop-color="#c4b1d6"/>
      <stop offset=".44" stop-color="#d1c7e3"/>
      <stop offset=".73" stop-color="#d9d4eb"/>
      <stop offset="1" stop-color="#dcd9ee"/>
    </linearGradient>
    <linearGradient id="linear-gradient-32" x1="496.03" y1="105.13" x2="506.24" y2="132.35" gradientUnits="userSpaceOnUse">
      <stop offset=".24" stop-color="#c2add4"/>
      <stop offset="1" stop-color="#dcd9ee"/>
    </linearGradient>
    <linearGradient id="linear-gradient-33" x1="487.15" y1="90.28" x2="542.11" y2="111.2" gradientUnits="userSpaceOnUse">
      <stop offset=".07" stop-color="#fff"/>
      <stop offset=".09" stop-color="#fdfcfd"/>
      <stop offset=".26" stop-color="#ebe5f2"/>
      <stop offset=".44" stop-color="#dfd5ea"/>
      <stop offset=".65" stop-color="#d8cce5"/>
      <stop offset=".92" stop-color="#d6c9e4"/>
    </linearGradient>
    <linearGradient id="linear-gradient-34" x1="532.19" y1="121.78" x2="562.51" y2="130.09" gradientUnits="userSpaceOnUse">
      <stop offset="0" stop-color="#fff"/>
      <stop offset=".06" stop-color="#f5f2f8"/>
      <stop offset=".18" stop-color="#e7dfef"/>
      <stop offset=".31" stop-color="#ddd2e8"/>
      <stop offset=".49" stop-color="#d7cbe5"/>
      <stop offset=".86" stop-color="#d6c9e4"/>
    </linearGradient>
    <linearGradient id="linear-gradient-35" x1="511.46" y1="151.65" x2="540.42" y2="166.74" gradientUnits="userSpaceOnUse">
      <stop offset="0" stop-color="#fff"/>
      <stop offset=".02" stop-color="#fcfcfd"/>
      <stop offset=".17" stop-color="#e7dfee"/>
      <stop offset=".34" stop-color="#d6c9e2"/>
      <stop offset=".52" stop-color="#cbb9da"/>
      <stop offset=".72" stop-color="#c4afd5"/>
      <stop offset="1" stop-color="#c2add4"/>
    </linearGradient>
    <linearGradient id="linear-gradient-36" x1="483.71" y1="186.15" x2="576.68" y2="186.15" gradientUnits="userSpaceOnUse">
      <stop offset="0" stop-color="#fff"/>
      <stop offset=".28" stop-color="#f7f5fa"/>
      <stop offset=".74" stop-color="#e3daec"/>
      <stop offset="1" stop-color="#d6c9e4"/>
    </linearGradient>
    <linearGradient id="linear-gradient-37" x1="573.31" y1="177.86" x2="583.96" y2="177.86" gradientUnits="userSpaceOnUse">
      <stop offset="0" stop-color="#b39ecc"/>
      <stop offset=".21" stop-color="#beacd3"/>
      <stop offset=".61" stop-color="#ddd3e8"/>
      <stop offset="1" stop-color="#fff"/>
    </linearGradient>
    <linearGradient id="linear-gradient-38" x1="573.36" y1="179.97" x2="580.11" y2="179.97" gradientUnits="userSpaceOnUse">
      <stop offset=".01" stop-color="#b39ecc"/>
      <stop offset=".22" stop-color="#beacd3"/>
      <stop offset=".62" stop-color="#ddd3e8"/>
      <stop offset="1" stop-color="#fff"/>
    </linearGradient>
    <linearGradient id="linear-gradient-39" x1="622.07" y1="121.36" x2="602.28" y2="126.76" gradientUnits="userSpaceOnUse">
      <stop offset=".13" stop-color="#c2add4"/>
      <stop offset=".35" stop-color="#cabcdc"/>
      <stop offset=".74" stop-color="#d7d1e9"/>
      <stop offset="1" stop-color="#dcd9ee"/>
    </linearGradient>
    <linearGradient id="linear-gradient-40" x1="623.15" y1="93.46" x2="656.47" y2="121.86" gradientUnits="userSpaceOnUse">
      <stop offset="0" stop-color="#fff"/>
      <stop offset=".09" stop-color="#ede7f2"/>
      <stop offset=".22" stop-color="#dacde5"/>
      <stop offset=".36" stop-color="#ccbbdb"/>
      <stop offset=".5" stop-color="#c4b0d5"/>
      <stop offset=".66" stop-color="#c2add4"/>
    </linearGradient>
    <linearGradient id="linear-gradient-41" x1="645.01" y1="101.22" x2="673.58" y2="122.93" gradientUnits="userSpaceOnUse">
      <stop offset="0" stop-color="#967bb6"/>
      <stop offset=".27" stop-color="#af9cca"/>
      <stop offset=".57" stop-color="#c7bddd"/>
      <stop offset=".83" stop-color="#d6d1e9"/>
      <stop offset="1" stop-color="#dcd9ee"/>
    </linearGradient>
    <linearGradient id="linear-gradient-42" x1="634.95" y1="142.75" x2="670.83" y2="142.75" gradientUnits="userSpaceOnUse">
      <stop offset="0" stop-color="#fff"/>
      <stop offset=".14" stop-color="#e9e1ef"/>
      <stop offset=".29" stop-color="#d8cae3"/>
      <stop offset=".45" stop-color="#cbbada"/>
      <stop offset=".63" stop-color="#c4b0d5"/>
      <stop offset=".85" stop-color="#c2add4"/>
    </linearGradient>
    <linearGradient id="linear-gradient-43" x1="651.71" y1="196.76" x2="663.72" y2="230.7" gradientUnits="userSpaceOnUse">
      <stop offset=".12" stop-color="#957bb6"/>
      <stop offset=".16" stop-color="#9d86bc"/>
      <stop offset=".3" stop-color="#b4a4ce"/>
      <stop offset=".45" stop-color="#c5bbdc"/>
      <stop offset=".61" stop-color="#d2cce6"/>
      <stop offset=".78" stop-color="#d9d5ec"/>
      <stop offset="1" stop-color="#dcd9ee"/>
    </linearGradient>
    <linearGradient id="linear-gradient-44" x1="634.88" y1="199.27" x2="669.93" y2="199.27" gradientUnits="userSpaceOnUse">
      <stop offset="0" stop-color="#fff"/>
      <stop offset=".11" stop-color="#f8f8f8"/>
      <stop offset=".2" stop-color="#f0edf3"/>
      <stop offset=".42" stop-color="#e1d9ea"/>
      <stop offset=".63" stop-color="#d8cde5"/>
      <stop offset=".85" stop-color="#d6c9e4"/>
    </linearGradient>
    <linearGradient id="linear-gradient-45" x1="585.73" y1="167.35" x2="677.68" y2="170.97" gradientUnits="userSpaceOnUse">
      <stop offset="0" stop-color="#fff"/>
      <stop offset=".13" stop-color="#f8f8f8"/>
      <stop offset=".22" stop-color="#f0edf3"/>
      <stop offset=".44" stop-color="#e1d9ea"/>
      <stop offset=".66" stop-color="#d8cde5"/>
      <stop offset=".87" stop-color="#d6c9e4"/>
    </linearGradient>
    <linearGradient id="linear-gradient-46" x1="589.07" y1="175.56" x2="592.34" y2="175.56" gradientUnits="userSpaceOnUse">
      <stop offset="0" stop-color="#fff"/>
      <stop offset=".33" stop-color="#e8e1ef"/>
      <stop offset=".98" stop-color="#b39ecc"/>
    </linearGradient>
    <linearGradient id="linear-gradient-47" x1="587.93" y1="174.15" x2="590.68" y2="174.15" gradientUnits="userSpaceOnUse">
      <stop offset="0" stop-color="#fff"/>
      <stop offset=".34" stop-color="#e8e1ef"/>
      <stop offset="1" stop-color="#b39ecc"/>
    </linearGradient>
    <linearGradient id="linear-gradient-48" x1="557.85" y1="197.22" x2="566.02" y2="197.22" gradientUnits="userSpaceOnUse">
      <stop offset="0" stop-color="#d6c9e4"/>
      <stop offset=".26" stop-color="#d9cde6"/>
      <stop offset=".55" stop-color="#e4dbed"/>
      <stop offset=".86" stop-color="#f5f2f8"/>
      <stop offset="1" stop-color="#fff"/>
    </linearGradient>
    <linearGradient id="linear-gradient-49" x1="663.87" y1="169.5" x2="672.23" y2="169.5" gradientUnits="userSpaceOnUse">
      <stop offset="0" stop-color="#d6c9e4"/>
      <stop offset=".26" stop-color="#d9cde6"/>
      <stop offset=".55" stop-color="#e4dbed"/>
      <stop offset=".86" stop-color="#f5f2f8"/>
      <stop offset="1" stop-color="#fff"/>
    </linearGradient>
    <linearGradient id="linear-gradient-50" x1="105.84" y1="100.92" x2="134.74" y2="129.81" gradientUnits="userSpaceOnUse">
      <stop offset="0" stop-color="#d6c9e4"/>
      <stop offset=".62" stop-color="#b6a3ce"/>
      <stop offset="1" stop-color="#c2add4"/>
    </linearGradient>
    <linearGradient id="linear-gradient-51" x1="111.14" y1="196.2" x2="118.16" y2="188.12" gradientTransform="translate(326.4 264.52) rotate(139.69)" gradientUnits="userSpaceOnUse">
      <stop offset="0" stop-color="#d6c9e4"/>
      <stop offset="1" stop-color="#c2add4"/>
    </linearGradient>
    <linearGradient id="linear-gradient-52" x1="31.83" y1="129.79" x2="135.38" y2="129.79" gradientUnits="userSpaceOnUse">
      <stop offset=".29" stop-color="#fff"/>
      <stop offset=".4" stop-color="#f3f0f7"/>
      <stop offset=".61" stop-color="#e3daec"/>
      <stop offset=".81" stop-color="#d9cde6"/>
      <stop offset=".99" stop-color="#d6c9e4"/>
    </linearGradient>
    <linearGradient id="linear-gradient-53" x1="30.9" y1="183.87" x2="137.65" y2="183.87" gradientUnits="userSpaceOnUse">
      <stop offset=".18" stop-color="#fff"/>
      <stop offset=".31" stop-color="#f3f0f7"/>
      <stop offset=".55" stop-color="#e3daec"/>
      <stop offset=".78" stop-color="#d9cde6"/>
      <stop offset="1" stop-color="#d6c9e4"/>
    </linearGradient>
    <linearGradient id="linear-gradient-54" x1="96.48" y1="106.65" x2="143.78" y2="106.65" gradientUnits="userSpaceOnUse">
      <stop offset="0" stop-color="#fff"/>
      <stop offset=".05" stop-color="#f8f6fa"/>
      <stop offset=".22" stop-color="#e9e2f0"/>
      <stop offset=".4" stop-color="#ded4e9"/>
      <stop offset=".63" stop-color="#d7cbe5"/>
      <stop offset=".99" stop-color="#d6c9e4"/>
    </linearGradient>
    <linearGradient id="linear-gradient-55" x1="92.59" y1="188.17" x2="143.78" y2="188.17" gradientUnits="userSpaceOnUse">
      <stop offset="0" stop-color="#fff"/>
      <stop offset=".05" stop-color="#f8f6fa"/>
      <stop offset=".21" stop-color="#e9e2f0"/>
      <stop offset=".39" stop-color="#ded4e9"/>
      <stop offset=".61" stop-color="#d7cbe5"/>
      <stop offset=".96" stop-color="#d6c9e4"/>
    </linearGradient>




  </defs>
  <polygon class="cls-5" points="283.01 171.09 312.18 204.95 303.42 213.11 274.25 179.25 283.01 171.09"/>
  <polygon class="cls-35" points="278.07 83.4 307.55 116.86 293.67 130.07 264.19 96.61 278.07 83.4"/>
  <rect class="cls-40" x="381.59" y="120.52" width="44.11" height="56.93" transform="translate(254.66 552.63) rotate(-90)"/>
  <polygon class="cls-58" points="417.75 199.55 373.4 199.55 373.4 170.72 417.75 126.93 417.75 199.55"/>
  <polygon class="cls-12" points="191.68 204.71 158.18 204.48 158.18 214.21 226.05 214.21 226.41 195.66 191.68 204.71"/>
  <polygon class="cls-7" points="226.41 195.66 158.18 195.67 158.18 204.71 191.76 204.71 226.41 195.66"/>
  <polyline class="cls-17" points="226.29 195.5 223.28 191.26 161.46 191.39"/>
  <polygon class="cls-38" points="161.99 182.19 161.46 186.79 161.46 191.39 223.4 191.39 161.99 182.19"/>
  <polygon class="cls-48" points="161.99 182.19 223.4 191.39 223.4 182.59 161.99 182.19"/>
  <polygon class="cls-42" points="214.59 150.37 206.56 136.99 159.9 180.39 161.99 182.19 223.4 182.59 221.16 167.77 214.59 150.37"/>
  <polygon class="cls-57" points="201.75 131.13 182.82 131.13 173.33 143.22 164.57 164.4 159.9 180.39 206.56 136.99 201.75 131.13"/>
  <polygon class="cls-11" points="201.75 126.15 186.23 126.15 182.82 131.13 201.75 131.13 201.75 126.15"/>
  <polygon class="cls-9" points="201.75 124.11 187.54 124.11 186.23 126.15 201.75 126.15 201.75 124.11"/>
  <polygon class="cls-1" points="201.75 107.9 198.44 107.9 187.54 124.11 201.75 124.11 201.75 107.9"/>
  <polygon class="cls-20" points="192.79 12.59 189.68 82.77 195.91 82.77 192.79 12.59"/>
  <polygon class="cls-34" points="187.68 82.77 187.68 85.04 188.61 85.04 188.7 95.09 196.51 85.06 197.64 85.06 197.64 82.77 187.68 82.77"/>
  <polygon class="cls-10" points="196.66 84.67 188.69 95.09 196.66 95.09 196.66 84.67"/>
  <polygon class="cls-33" points="186.23 126.15 182.82 126.15 182.82 131.13 186.23 126.15"/>
  <rect class="cls-24" x="201.75" y="124.11" width="2.68" height="2.03"/>
  <polygon class="cls-2" points="187.54 124.11 181.24 124.11 181.24 126.15 186.23 126.15 187.54 124.11"/>
  <polygon class="cls-51" points="196.91 110.18 183.01 110.18 183.01 124.11 187.54 124.11 196.91 110.18"/>
  <polygon class="cls-3" points="192.66 105.47 187.68 100.46 180.63 108.41 183.01 108.41 183.01 110.18 196.91 110.18 198.44 107.9 204.03 107.9 196.91 100.78 192.66 105.47"/>
  <polygon class="cls-32" points="196.66 95.09 188.7 95.09 184.62 103.91 187.68 100.46 192.66 105.47 196.91 100.78 200.38 104.26 196.66 95.09"/>
  <polygon class="cls-13" points="183.01 110.18 196.91 110.18 187.54 124.11 183.01 124.11 183.01 110.18"/>
  <polyline class="cls-13" points="183.01 124.11 181.24 124.11 181.24 126.15 186.23 126.15 187.54 124.11 186.23 126.15 201.75 126.15 201.75 124.11 187.54 124.11"/>
  <polyline class="cls-13" points="196.91 110.18 198.44 107.9 201.75 107.9 201.75 124.11 204.42 124.11 204.42 126.15 201.75 126.15 201.75 131.13"/>
  <polyline class="cls-6" points="182.82 126.15 182.82 131.13 186.23 126.15"/>
  <polyline class="cls-26" points="183.01 110.18 183.01 108.41 180.63 108.41 184.62 103.91 187.68 100.46 192.66 105.47 196.91 100.78 204.03 107.9 201.75 107.9"/>
  <polyline class="cls-13" points="200.14 104.02 196.57 95.09 188.7 95.09 184.62 103.91"/>
  <polyline class="cls-13" points="196.66 95.09 196.66 84.67 188.7 95.09 188.61 85.04 187.68 85.04 187.68 82.77 195.91 82.77 197.64 82.77 197.64 85.06 196.62 85.06"/>
  <polygon class="cls-13" points="192.79 12.78 195.91 82.77 189.68 82.77 192.79 12.78"/>
  <polygon class="cls-21" points="275 174.56 240.37 214.11 309.64 214.11 275 174.56"/>
  <polygon class="cls-49" points="306.79 121.76 333.84 81.78 271.58 81.78 306.79 121.76"/>
  <polygon class="cls-22" points="344.52 175.84 263.54 83.5 235.75 117.64 318.51 213.71 344.52 175.84"/>
  <polygon class="cls-19" points="467.51 148.38 428.86 120.85 428.86 175.91 467.51 148.38"/>
  <polygon class="cls-50" points="421.25 138.15 369.26 193.56 369.26 213.57 421.25 213.57 421.25 138.15"/>
  <polygon class="cls-43" points="369.26 182.03 464.47 82.29 369.49 82.29 369.26 182.03"/>
  <polygon class="cls-63" points="399.41 179.63 399.77 197.23 415.16 188.73 399.41 179.63"/>
  <path class="cls-63" d="m302.94,183.57c.94-3.5,1.92-6.31,2.69-8.35.65-1.71,1.2-2.97,2.43-3.26,1.44-.35,2.96.84,3.48,1.27"/>
  <line class="cls-63" x1="305.63" y1="175.22" x2="309.59" y2="176.49"/>
  <line class="cls-63" x1="282.63" y1="91.51" x2="284.76" y2="83.38"/>
  <line class="cls-63" x1="283.83" y1="86.92" x2="288.82" y2="85.73"/>
  <line class="cls-63" x1="283.45" y1="88.37" x2="286.25" y2="93.81"/>
  <line class="cls-63" x1="292.46" y1="91.34" x2="298.42" y2="92.74"/>
  <line class="cls-63" x1="291.74" y1="93.38" x2="297.95" y2="95"/>
  <line class="cls-63" x1="313.95" y1="87.44" x2="305.95" y2="101.51"/>
  <line class="cls-63" x1="303.87" y1="100.36" x2="307.19" y2="90.22"/>
  <line class="cls-63" x1="301.61" y1="94.48" x2="307.31" y2="90.02"/>
  <path class="cls-63" d="m312.84,93.25c2.13-.4,3.85-.06,4.26.85.44.97-.73,2.36-1.36,3.11-2.81,3.32-6.32,3.58-6.3,4.6.01.58,1.18,1.35,6.21,2.21"/>
  <line class="cls-63" x1="241.89" y1="120.81" x2="243.7" y2="113.76"/>
  <line class="cls-63" x1="244.35" y1="112.06" x2="244.61" y2="110.43"/>
  <line class="cls-63" x1="256.77" y1="119.83" x2="253.34" y2="132.9"/>
  <line class="cls-63" x1="284.35" y1="129.63" x2="288.04" y2="130.61"/>
  <line class="cls-63" x1="303.57" y1="139.76" x2="306.42" y2="132.83"/>
  <path class="cls-63" d="m246.81,117.48c.44.09,1.12.31,1.55.91.42.59.4,1.28.39,1.57-.05,1.47-.1,4.49-.19,8.49"/>
  <path class="cls-63" d="m248.65,124.47c1.67-.63,4.72-2.11,5.93-5.17.1-.25.18-.51.26-.78"/>
  <path class="cls-63" d="m263.86,129.35c-.58-.03-1.31-.17-1.58-.67-.27-.51.06-1.16.17-1.4.42-.93.76-2.54.35-5.5"/>
  <path class="cls-63" d="m256.93,119.75c-1.7,3.74-1.21,7.38.07,8.22,1.36.88,4.46-.84,6.02-5.12"/>
  <line class="cls-63" x1="274.73" y1="124.84" x2="271.3" y2="137.91"/>
  <path class="cls-63" d="m281.82,134.36c-.58-.03-1.31-.17-1.58-.67-.27-.51.06-1.16.17-1.4.42-.93.76-2.54.35-5.5"/>
  <path class="cls-63" d="m274.89,124.76c-1.7,3.74-1.21,7.38.07,8.22,1.36.88,4.46-.84,6.02-5.12"/>
  <path class="cls-63" d="m268.49,118.13c1.36-1.17,2.79-1.63,3.69-1.11.61.35.97,1.83,1.24,3.07,0,0,.54,2.7-.82,6.15-.26.65-.62,1.16-.62,1.16s-.06.08-.12.17c-.75.98-1.67,1.52-1.67,1.52-.42.25-1.6.93-2.61.59-1.48-.5-2.2-3.07-1.62-5.03.39-1.33,1.81-3.37,3.63-2.89,2.97.8,3.9,3.48,2.81,4.72"/>
  <path class="cls-63" d="m296.26,169.87c1.74-1.24,3.59-1.73,4.74-1.18.78.38,1.25,1.94,1.59,3.25,0,0,.7,2.86-1.05,6.52-.33.69-.79,1.23-.79,1.23s-.08.09-.16.18c-.96,1.04-2.15,1.61-2.15,1.61-.54.26-2.05.99-3.35.63-1.91-.52-2.82-3.25-2.08-5.33.5-1.41,2.33-3.57,4.66-3.06,3.82.84,5.01,3.69,3.61,4.99"/>
  <path class="cls-63" d="m404.95,110.94c.68-1.97,1.86-3.32,3.07-3.39.83-.05,2.08,1.12,3.08,2.13,0,0,2.15,2.22,2.83,6.37.13.78.07,1.49.07,1.49s0,.12-.02.24c-.17,1.41-.79,2.51-.79,2.51-.28.5-1.06,1.9-2.28,2.22-1.8.47-4.05-1.53-4.63-3.76-.4-1.52-.18-4.36,1.95-5.04,3.48-1.13,6.02.84,5.65,2.7"/>
  <path class="cls-63" d="m318.77,175.81c1.89-1,3.79-1.23,4.85-.53.73.48.98,2.09,1.14,3.43,0,0,.31,2.92-1.91,6.32-.42.64-.95,1.11-.95,1.11s-.09.08-.18.16c-1.09.9-2.34,1.31-2.34,1.31-.57.19-2.16.7-3.4.18-1.82-.77-2.36-3.6-1.35-5.56.69-1.33,2.78-3.23,5.02-2.41,3.67,1.35,4.47,4.32,2.91,5.43"/>
  <path class="cls-63" d="m299.58,137.84c.52-2.53-.02-4.7-1.34-5.4-.81-.43-2.25-.49-2.72.17-.21.3-.16.65-.13,1,.06.79,0,1.93-.6,3.44"/>
  <path class="cls-63" d="m294.85,136.88c.71-3.68,1.63-6.87-3.15-5.51"/>
  <line class="cls-63" x1="292.16" y1="129.35" x2="290.65" y2="135.66"/>
  <path class="cls-63" d="m308.42,135.01c-.03.13-.49,2.62,1.34,4.31,1.51,1.4,3.4,1.17,3.67,1.13"/>
  <line class="cls-63" x1="310.49" y1="143.63" x2="311.57" y2="139.06"/>
  <line class="cls-63" x1="307.61" y1="184.59" x2="316.12" y2="171.89"/>
  <line class="cls-63" x1="333.31" y1="187.66" x2="334.5" y2="182.2"/>
  <line class="cls-63" x1="331.27" y1="184.93" x2="336.8" y2="185.87"/>
  <path class="cls-63" d="m327.86,189.27c-.49.03-2.17.07-2.81-.94-.45-.71-.16-1.63,0-2.13,1.21-3.68,3.52-9.36,3.83-10.13"/>
  <line class="cls-63" x1="331.18" y1="179.15" x2="326.42" y2="177.73"/>
  <line class="cls-63" x1="258.14" y1="194.04" x2="260.01" y2="194.8"/>
  <line class="cls-63" x1="255.41" y1="197.53" x2="258.56" y2="198.97"/>
  <line class="cls-63" x1="264.26" y1="202.55" x2="268.01" y2="188.42"/>
  <line class="cls-63" x1="272.01" y1="205.53" x2="281.2" y2="189.53"/>
  <line class="cls-63" x1="278.94" y1="208.38" x2="281.67" y2="197.15"/>
  <path class="cls-63" d="m269.41,204.29c.03-.49.39-5.84-.13-7.66-.17-.61-.45-.87-.6-.98-.6-.47-1.93-.4-2.26-.33"/>
  <path class="cls-63" d="m281.37,199.14c1.1-.52,2.7-.58,3.74.43.65.63,1.08,1.65.85,2.68-.31,1.4-1.64,1.97-2,2.13-.94.41-1.85.31-2.81.21-.64-.07-1.16-.19-1.53-.3"/>
  <path class="cls-63" d="m369.26,125.08c.26.18,1.71,1.14,3.06.6.41-.17,1.18-.62,1.79-2.47,1.2-3.64.21-7.91-.43-10.04"/>
  <line class="cls-63" x1="371.47" y1="122.7" x2="374.02" y2="132.23"/>
  <line class="cls-63" x1="380.75" y1="127.46" x2="389" y2="125.08"/>
  <line class="cls-63" x1="378.7" y1="121.67" x2="387.55" y2="119.5"/>
  <line class="cls-63" x1="395.04" y1="126.27" x2="392.06" y2="115.12"/>
  <line class="cls-63" x1="399.21" y1="124.65" x2="395.55" y2="110.78"/>
  <line class="cls-63" x1="394.19" y1="114.27" x2="398.53" y2="113.16"/>
  <line class="cls-63" x1="422.28" y1="118.78" x2="418.96" y2="104.06"/>
  <line class="cls-63" x1="428.66" y1="117.25" x2="434.11" y2="96.99"/>
  <line class="cls-63" x1="448.24" y1="95.38" x2="448.24" y2="99.29"/>
  <line class="cls-63" x1="445.6" y1="97.33" x2="450.7" y2="96.48"/>
  <line class="cls-63" x1="391.81" y1="114.1" x2="391.38" y2="112.14"/>
  <path class="cls-63" d="m405.07,123.88c.06-.49-.89-6-3.81-8.59-1.01-.9-3.09.98-3.88.77"/>
  <path class="cls-63" d="m412.41,105.11c0,.17.3,4.1,3.57,5.7,1.85.91,3.64.57,4.26.43"/>
  <path class="cls-63" d="m424.32,102.35c.15.37,1.28,3.29-.34,6.04-.95,1.62-2.37,2.36-2.98,2.64"/>
  <path class="cls-63" d="m438.36,99.97c.4-.19,2.89-1.34,5.45-.17,1.18.54,1.91,1.36,2.3,1.87"/>
  <path class="cls-63" d="m441.92,105.72c-.24-.03-2.02-.25-3.43,1.05-1.7,1.57-1.25,3.88-1.23,3.99"/>
  <polyline class="cls-63" points="370.91 213.57 379.69 208.62 369.26 202.64"/>
  <polyline class="cls-63" points="379.69 189.67 372.77 193.4 381.64 208.1 387.99 204.6"/>
  <line class="cls-63" x1="377.3" y1="200.91" x2="381.94" y2="198.07"/>
  <line class="cls-63" x1="386.03" y1="195.92" x2="393.06" y2="192"/>
  <line class="cls-63" x1="387.99" y1="198.88" x2="394.62" y2="195.08"/>
  <line class="cls-63" x1="417.64" y1="188.08" x2="408.67" y2="173.42"/>
  <line class="cls-63" x1="413.74" y1="180.75" x2="416.96" y2="173.23"/>
  <line class="cls-63" x1="421.25" y1="182.94" x2="413.74" y2="180.75"/>
  <polyline class="cls-63" points="428.86 137.32 439.81 131.36 435.11 150.36"/>
  <line class="cls-63" x1="439.14" y1="143.88" x2="429.45" y2="137.47"/>
  <polyline class="cls-63" points="438.54 150.36 442.64 150.36 439.81 153.49"/>
  <polyline class="cls-63" points="450.46 140.67 447.7 157.81 460.36 145.52"/>
  <line class="cls-63" x1="450.98" y1="157.81" x2="454.03" y2="157.81"/>
  <polygon class="cls-13" points="158.18 214.21 158.18 204.71 191.76 204.71 226.41 195.67 226.05 214.21 158.18 214.21"/>
  <polygon class="cls-13" points="158.18 196.04 226.12 195.67 226.12 195.67 191.76 204.71 158.18 204.71 158.18 196.04"/>
  <polyline class="cls-56" points="158.18 195.67 161.46 191.39 223.4 191.39 226.41 195.67"/>
  <polyline class="cls-13" points="161.46 191.39 161.46 186.79 161.99 182.19 223.4 191.39 223.4 182.59 221.16 167.77 214.59 150.37 206.56 136.99 160.31 179.73 164.57 164.4 173.33 143.22 182.82 131.13 201.75 131.13 206.56 136.99"/>
  <line class="cls-13" x1="162.99" y1="182.19" x2="160.58" y2="180.2"/>
  <polygon class="cls-13" points="275 174.56 240.37 214.11 309.64 214.11 275 174.56"/>
  <polygon class="cls-13" points="235.75 117.64 263.54 83.5 344.52 175.84 318.51 213.71 235.75 117.64"/>
  <polygon class="cls-13" points="306.79 121.76 271.58 81.78 333.84 81.78 306.79 121.76"/>
  <polygon class="cls-13" points="369.26 182.03 369.49 82.29 464.47 82.29 369.26 182.03"/>
  <polygon class="cls-13" points="369.26 213.57 369.26 193.56 421.25 138.15 421.25 213.57 369.26 213.57"/>
  <polygon class="cls-55" points="428.86 175.91 428.86 120.85 467.51 148.38 428.86 175.91"/>
  <polygon class="cls-41" points="592.24 147.91 594.6 141.97 598.38 154.3 596.36 158.74 591.34 151.41 592.24 147.91"/>
  <polygon class="cls-53" points="589.56 187.27 592.03 189.48 594.09 189.48 596.23 187.58 633.01 187.58 634.95 192.67 658.36 183.19 623.16 165.2 613.35 170.72 604.55 182 595.47 182 589.56 187.27"/>
  <path class="cls-25" d="m502.78,195.63c-.79,1.7-1.59,3.41-2.38,5.11,4.76,4.03,9.52,8.06,14.27,12.09,14.24-2.09,28.49-4.17,42.73-6.26,3.25-3.29,6.49-6.58,9.74-9.87.92-3.3,1.83-6.59,2.75-9.89-22.37,2.94-44.74,5.88-67.11,8.82Z"/>
  <polyline class="cls-14" points="563.11 167.65 549.97 156.03 551.74 162.59 556.87 167.65"/>
  <polygon class="cls-31" points="513.31 104.41 483.43 118.33 496.44 129.94 513.48 121.13 513.31 104.41"/>
  <polygon class="cls-4" points="542.24 81.78 503.1 81.91 483.43 99.67 483.43 118.33 523.25 104.02 535.24 109.76 542.24 81.78"/>
  <path class="cls-15" d="m542.18,82l-6.94,27.74s0,.03,0,.04l7.58,57.49c.02.12.19.15.25.04l15.08-24.66v-.03s8.52-28.3,8.52-28.3c0-.02,0-.05,0-.07l-6.94-16.75s-.02-.03-.03-.04l-17.28-15.53c-.08-.07-.2-.03-.23.06Z"/>
  <polygon class="cls-29" points="535.24 109.76 486.48 192.92 506.63 183.93 524.96 186.63 542.87 167.65 535.24 109.76"/>
  <polyline class="cls-45" points="535.24 197.36 567.97 210.96 569.6 214.5 538.26 214.5 514.67 212.83 502.37 201.77 515.99 214.01 488.48 214.01 483.71 209.72 483.71 196.87 486.48 192.92 506.63 183.93 524.96 186.63 531.39 188.13 540.19 188.21 544.41 186.48 550.09 173.22 546.88 157.81 556.87 167.65 565.77 167.65 573.01 172.11 576.68 176.1 574.38 185.91 569.6 187.5 562.74 189.78 569.6 187.5 567.14 196.7 557.4 206.57"/>
  <line class="cls-60" x1="573.41" y1="176.83" x2="583.86" y2="178.89"/>
  <line class="cls-61" x1="573.5" y1="179.06" x2="579.98" y2="180.88"/>
  <path class="cls-39" d="m614.88,109.11l-13.34,32.05,20.49-7.52s.03-.02.02-.04l-7.17-24.49Z"/>
  <path class="cls-18" d="m624.72,82.29l-9.97,26.99,7.15,24.43s.06.05.09.02l13.42-18.07,23.13-33.36h-33.81Z"/>
  <path class="cls-16" d="m658.25,82.41l-20.98,30.15s-2.32,3.65-2.32,3.7v2.63c0,.07.27,1.36.33,1.41l35.03,29.42c.2.17.52.04.52-.2v-56.15c0-.07-.03-.14-.09-.19l-12.01-10.81c-.14-.13-.37-.1-.48.05Z"/>
  <polygon class="cls-8" points="635.28 120.31 634.95 160.51 644.56 156.73 670.83 165.2 670.83 150.17 635.28 120.31"/>
  <path class="cls-23" d="m669.96,192.99l-34.7,12.72c-.58.21-.52.89-.08,1.29l7.13,6.4c.12.11.28.17.45.17h27.44c.35,0,.63-.25.63-.56v-19.49c0-.4-.46-.67-.87-.52Z"/>
  <path class="cls-54" d="m634.95,192.67v12.92c0,.14-.15.37,0,.31l34.85-12.85c.22-.08.16-.38-.08-.38h-34.76c-.12,0,0-.11,0,0Z"/>
  <path class="cls-37" d="m664.92,190.63l-8.48-7.57-20.33,9.09c-.27.12-.18.52.11.52h34.62l6.81-6.07-4.74-20.54-28.33-9.32-22.51,8.83,2.5-.98-24.04-12.18-3.6,3.21-4.68-7.7-2.27-3.73-3.03,14.19v10.06l-1.33,1.92,6.83,6.53,4.08-2.21,7.29,5.86.73,1.47"/>
  <polyline class="cls-13" points="618.85 182 595.47 182 589.56 187.27 592.03 189.48 594.09 189.48 596.23 187.58 633.01 187.58 634.95 192.67"/>
  <line class="cls-62" x1="591.85" y1="169.78" x2="589.56" y2="181.35"/>
  <line class="cls-64" x1="590.2" y1="170.72" x2="588.41" y2="177.58"/>
  <polygon class="cls-46" points="566.02 192.04 560.03 195.04 557.85 202.4 564.68 195.11 566.02 192.04"/>
  <polygon class="cls-47" points="672.23 173.81 670.9 167.57 663.87 165.2 669.31 168.83 672.23 173.81"/>
  <polygon class="cls-59" points="63.54 185.91 35.32 185.91 35.32 171.04 63.54 143.6 63.54 185.91"/>
  <polygon class="cls-30" points="140.47 89.23 140.47 124.08 82.68 124.08 122.9 89.23 140.47 89.23"/>
  <rect class="cls-52" x="87.2" y="187.14" width="54.9" height="10.04" transform="translate(77.76 412.86) rotate(-139.69)"/>
  <polygon class="cls-36" points="135.38 81.82 61.27 81.82 31.83 111.51 31.83 177.75 135.38 81.82"/>
  <polygon class="cls-44" points="66.39 153.48 30.9 186.53 62.5 214.26 137.65 214.26 66.39 153.48"/>
  <polygon class="cls-27" points="143.78 84.44 96.48 128.86 143.78 128.86 143.78 84.44"/>
  <polygon class="cls-28" points="92.59 170.06 143.66 210.95 143.78 165.4 92.59 170.06"/>
  <polygon class="cls-63" points="56.29 99.47 56.73 109.06 64.81 103.88 56.29 99.47"/>
  <polygon class="cls-63" points="70.6 91.11 71.05 100.69 79.13 95.51 70.6 91.11"/>
  <line class="cls-63" x1="65.63" y1="94.93" x2="66.23" y2="103.35"/>
  <line class="cls-63" x1="61.8" y1="97.23" x2="69.71" y2="101.4"/>
  <line class="cls-63" x1="78.05" y1="90.84" x2="83.42" y2="98.42"/>
  <path class="cls-63" d="m78.4,88.55s4.89-3.01,6.81,1.28c1.45,3.23-1.11,4.81-1.11,4.81,0,0-2.07,1.15-4.36-1.4"/>
  <polyline class="cls-63" points="84.78 83.95 92.1 83.95 88.95 89.65"/>
  <line class="cls-63" x1="89.29" y1="90.5" x2="95.59" y2="86.8"/>
  <line class="cls-63" x1="96.78" y1="85.4" x2="95.08" y2="82.5"/>
  <line class="cls-63" x1="99.5" y1="83.95" x2="98.99" y2="82.5"/>
  <line class="cls-63" x1="42.09" y1="138.88" x2="46.99" y2="138.88"/>
  <line class="cls-63" x1="42.09" y1="141.18" x2="46.99" y2="141.18"/>
  <path class="cls-63" d="m36.65,143.43c-.1-2.16-.06-3.94,0-5.23.05-1.09.13-1.9.72-2.3.7-.46,1.7-.07,2.04.09"/>
  <line class="cls-63" x1="36.65" y1="138.2" x2="38.95" y2="138.2"/>
  <path class="cls-63" d="m64.71,142.75c-.1-2.16-.06-3.94,0-5.23.05-1.09.13-1.9.72-2.3.7-.46,1.7-.07,2.04.09"/>
  <line class="cls-63" x1="64.71" y1="137.52" x2="67.01" y2="137.52"/>
  <circle class="cls-63" cx="54.96" cy="137.82" r="4.95"/>
  <line class="cls-63" x1="55.37" y1="140.41" x2="59.03" y2="144.07"/>
  <path class="cls-63" d="m63.5,133.18c-.48.58-2.07,2.61-2.09,5.62-.02,2.39.96,4.12,1.4,4.81"/>
  <path class="cls-63" d="m69.54,132.24c.48,1.04,1.02,2.48,1.32,4.26.37,2.21.21,4.09,0,5.36"/>
  <path class="cls-63" d="m117.64,128.63l-3.74-6.89c3-2.34,5.78-3.56,6.6-2.81.85.79-.29,3.9-2.94,7.47"/>
  <polyline class="cls-63" points="121.51 117.97 127.01 125.7 125.56 115"/>
  <line class="cls-63" x1="129.71" y1="119.56" x2="134.56" y2="116.56"/>
  <line class="cls-63" x1="130.95" y1="121.96" x2="136.16" y2="118.7"/>
  <path class="cls-63" d="m139.92,119.12c-1.27-2.12-2.53-4.23-3.8-6.35"/>
  <path class="cls-63" d="m136.57,114.27c.33-.42,1.12-1.29,2.3-1.45,1.81-.25,3.88,1.25,4.66,3.81"/>
  <path class="cls-63" d="m143.69,114.2c-1.37-2.34-2.74-4.68-4.12-7.02"/>
  <path class="cls-63" d="m143.37,106.1c-.41-.07-1.25-.14-2.23.19-1,.34-1.63.94-1.91,1.24"/>
  <path class="cls-63" d="m143.69,111.17c-.37.38-.74.77-1.12,1.15"/>
  <path class="cls-63" d="m73.53,172.82c.02-2.62-.71-5.71-6.19-3.06-2.52,1.22-3.95,3.07-4.53,3.89-2.52,3.54-1.93,5.14-.32,6.45,1.45,1.18,4.74.74,7.53-1.98"/>
  <line class="cls-63" x1="66.73" y1="174.59" x2="71.8" y2="179.66"/>
  <line class="cls-63" x1="74.33" y1="178.67" x2="65.61" y2="187.38"/>
  <path class="cls-63" d="m72.67,180.36c-3.34,3.11-3.93,6.85-2.61,8.29.75.82,2.35,1.15,3.66.93.86-.14,1.43-.5,2.36-1.12,1.17-.78,2.71-1.84,4.5-3.19"/>
  <path class="cls-63" d="m76.18,193.03c-.96,0-1.82-.54-2.23-1.37-.56-1.12,0-2.2.06-2.3"/>
  <path class="cls-63" d="m83.07,187.58c.03.4.05,1.01-.03,1.72-.54,4.46-4.43,6.6-3.89,7.47.45.73,3.63-.08,6.03-1.72,1.44-.98,2.38-2.11,2.94-2.9"/>
  <line class="cls-63" x1="86.42" y1="196.61" x2="92.18" y2="202.37"/>
  <line class="cls-63" x1="84.7" y1="198.49" x2="90.54" y2="204.33"/>
  <circle class="cls-63" cx="95.63" cy="208.5" r="3.4"/>
  <circle class="cls-63" cx="100.07" cy="204.6" r="2.54"/>
  <path class="cls-63" d="m102.86,209.92c.32-.26.88-.64,1.4-.48.39.12.6.48.67.61.39.65,1.4,1.86,3.83,4.21"/>
  <line class="cls-63" x1="105.81" y1="211.21" x2="102.81" y2="214.21"/>
  <line class="cls-63" x1="112.91" y1="177.63" x2="120.74" y2="177.63"/>
  <line class="cls-63" x1="112.91" y1="184.57" x2="118.83" y2="184.57"/>
  <line class="cls-63" x1="119.59" y1="191.72" x2="121.21" y2="191.72"/>
  <line class="cls-63" x1="112.91" y1="177.12" x2="112.91" y2="186.15"/>
  <line class="cls-63" x1="123.59" y1="184.19" x2="130.53" y2="184.19"/>
  <line class="cls-63" x1="124.02" y1="187.46" x2="130.53" y2="187.46"/>
  <line class="cls-63" x1="134.27" y1="177.12" x2="134.27" y2="192.06"/>
  <path class="cls-63" d="m139.64,191.98c1.28-4.92.02-8.92-2.26-9.83-.42-.17-1.44-.45-3.11.26"/>
  <path class="cls-63" d="m140.61,181.68c.84,3.26,1.67,6.52,2.51,9.79"/>
  <polygon class="cls-13" points="30.9 178.66 30.9 112.42 60.35 82.73 134.46 82.73 30.9 178.66"/>
  <polygon class="cls-13" points="96.48 128.86 143.78 84.44 143.78 128.86 96.48 128.86"/>
  <polygon class="cls-13" points="66.39 153.48 30.9 186.53 62.5 214.26 137.65 214.26 66.39 153.48"/>
  <polygon class="cls-13" points="92.59 170.06 143.78 165.4 143.66 210.95 92.59 170.06"/>
  <line class="cls-63" x1="35.97" y1="135.52" x2="32.98" y2="143.43"/>
</svg>